M48
;Layer_Color=9474304
;FILE_FORMAT=4:4
METRIC
;TYPE=PLATED
T1F00S00C0.1000
T2F00S00C0.1500
T3F00S00C0.9000
%
T01
X00125800Y00093000
X00131280Y00092720
X00130750Y00098280
X00145860Y00082500
X00096655Y00112793
T02
X00114000Y00093000
X00114007Y00101317
X00125795Y00106811
X00132507Y00112006
X00140000Y00106000
X00143757Y00093255
X00131776Y00083290
X00126006Y00082254
X00181500Y00083500
X00183000Y00115000
X00153000Y00125000
X00050000Y00094000
T03
X00112650Y00029500
X00138050
X00163450
X00188850
X00214250
Y00156500
X00188850
X00163450
X00138050
X00112650
X00087250
X00061850
Y00029500
X00087250
M30
