G04 Layer_Color=8388736*
%FSLAX44Y44*%
%MOMM*%
G71*
G01*
G75*
%ADD15C,0.1016*%
G04:AMPARAMS|DCode=23|XSize=1.4732mm|YSize=1.4732mm|CornerRadius=0.2604mm|HoleSize=0mm|Usage=FLASHONLY|Rotation=270.000|XOffset=0mm|YOffset=0mm|HoleType=Round|Shape=RoundedRectangle|*
%AMROUNDEDRECTD23*
21,1,1.4732,0.9525,0,0,270.0*
21,1,0.9525,1.4732,0,0,270.0*
1,1,0.5207,-0.4763,-0.4763*
1,1,0.5207,-0.4763,0.4763*
1,1,0.5207,0.4763,0.4763*
1,1,0.5207,0.4763,-0.4763*
%
%ADD23ROUNDEDRECTD23*%
%ADD24R,1.5032X0.9032*%
%ADD25R,1.5032X1.1032*%
%ADD26C,0.3532*%
%ADD27C,1.7032*%
%ADD28R,1.7032X1.7032*%
D15*
X860000Y650000D02*
X860000Y540000D01*
X860000Y650000D02*
X1050000D01*
X1050000Y650000D02*
X1050000Y650000D01*
X1050000Y540000D02*
Y650000D01*
X860000Y540000D02*
X1050000D01*
D23*
X1031860Y587265D02*
D03*
Y606315D02*
D03*
D24*
X1004550Y584099D02*
D03*
Y603099D02*
D03*
X914680Y584099D02*
D03*
Y603099D02*
D03*
D25*
X975650Y585369D02*
D03*
Y604369D02*
D03*
X882420Y604115D02*
D03*
Y585115D02*
D03*
D26*
X938280Y602690D02*
D03*
Y597690D02*
D03*
Y592690D02*
D03*
Y587690D02*
D03*
X943280Y602690D02*
D03*
Y597690D02*
D03*
Y592690D02*
D03*
Y587690D02*
D03*
X948280Y602690D02*
D03*
Y597690D02*
D03*
Y592690D02*
D03*
Y587690D02*
D03*
X953280Y602690D02*
D03*
Y597690D02*
D03*
Y592690D02*
D03*
Y587690D02*
D03*
D27*
X877860Y633730D02*
D03*
X903260D02*
D03*
X928660D02*
D03*
X954060D02*
D03*
X1004860D02*
D03*
X979460D02*
D03*
X877600Y557530D02*
D03*
X903000D02*
D03*
X928400D02*
D03*
X953800D02*
D03*
X1004600D02*
D03*
X979200D02*
D03*
D28*
X1030260Y633730D02*
D03*
X1030000Y557530D02*
D03*
M02*
