G04 Layer_Physical_Order=2*
G04 Layer_Color=16711680*
%FSLAX44Y44*%
%MOMM*%
G71*
G01*
G75*
%ADD14C,0.1000*%
%ADD15C,0.1016*%
%ADD16C,1.5000*%
%ADD17R,1.5000X1.5000*%
%ADD18C,0.7500*%
G36*
X1050000Y541000D02*
X1050000Y541000D01*
X1046414Y540000D01*
X860000D01*
X860000Y647172D01*
X862828Y650000D01*
X1050000D01*
Y541000D01*
D02*
G37*
%LPC*%
G36*
X1004600Y566356D02*
X1002316Y566055D01*
X1000187Y565173D01*
X998359Y563771D01*
X996957Y561943D01*
X996075Y559814D01*
X995775Y557530D01*
X996075Y555246D01*
X996957Y553117D01*
X998359Y551289D01*
X1000187Y549887D01*
X1002316Y549005D01*
X1004600Y548704D01*
X1006884Y549005D01*
X1009013Y549887D01*
X1010841Y551289D01*
X1012243Y553117D01*
X1013125Y555246D01*
X1013426Y557530D01*
X1013125Y559814D01*
X1012243Y561943D01*
X1010841Y563771D01*
X1009013Y565173D01*
X1006884Y566055D01*
X1004600Y566356D01*
D02*
G37*
G36*
X1038750Y566280D02*
X1021250D01*
Y548780D01*
X1038750D01*
Y566280D01*
D02*
G37*
G36*
X876330Y567489D02*
X874979Y567312D01*
X872537Y566300D01*
X870439Y564691D01*
X868830Y562593D01*
X867818Y560151D01*
X867641Y558800D01*
X876330D01*
Y567489D01*
D02*
G37*
G36*
X989159Y556260D02*
X980470D01*
Y547571D01*
X981821Y547748D01*
X984263Y548760D01*
X986361Y550369D01*
X987970Y552467D01*
X988982Y554909D01*
X989159Y556260D01*
D02*
G37*
G36*
X876330D02*
X867641D01*
X867818Y554909D01*
X868830Y552467D01*
X870439Y550369D01*
X872537Y548760D01*
X874979Y547748D01*
X876330Y547571D01*
Y556260D01*
D02*
G37*
G36*
X887559D02*
X878870D01*
Y547571D01*
X880221Y547748D01*
X882663Y548760D01*
X884761Y550369D01*
X886370Y552467D01*
X887382Y554909D01*
X887559Y556260D01*
D02*
G37*
G36*
X977930D02*
X969241D01*
X969418Y554909D01*
X970430Y552467D01*
X972039Y550369D01*
X974137Y548760D01*
X976579Y547748D01*
X977930Y547571D01*
Y556260D01*
D02*
G37*
G36*
X954060Y642555D02*
X951776Y642255D01*
X949647Y641373D01*
X947819Y639971D01*
X946417Y638143D01*
X945535Y636014D01*
X945235Y633730D01*
X945535Y631446D01*
X946417Y629317D01*
X947819Y627489D01*
X949647Y626087D01*
X951776Y625205D01*
X954060Y624905D01*
X956344Y625205D01*
X958473Y626087D01*
X960301Y627489D01*
X961703Y629317D01*
X962585Y631446D01*
X962886Y633730D01*
X962585Y636014D01*
X961703Y638143D01*
X960301Y639971D01*
X958473Y641373D01*
X956344Y642255D01*
X954060Y642555D01*
D02*
G37*
G36*
X928660D02*
X926376Y642255D01*
X924247Y641373D01*
X922419Y639971D01*
X921017Y638143D01*
X920135Y636014D01*
X919835Y633730D01*
X920135Y631446D01*
X921017Y629317D01*
X922419Y627489D01*
X924247Y626087D01*
X926376Y625205D01*
X928660Y624905D01*
X930944Y625205D01*
X933073Y626087D01*
X934901Y627489D01*
X936303Y629317D01*
X937185Y631446D01*
X937486Y633730D01*
X937185Y636014D01*
X936303Y638143D01*
X934901Y639971D01*
X933073Y641373D01*
X930944Y642255D01*
X928660Y642555D01*
D02*
G37*
G36*
X1004860D02*
X1002576Y642255D01*
X1000447Y641373D01*
X998619Y639971D01*
X997217Y638143D01*
X996335Y636014D01*
X996034Y633730D01*
X996335Y631446D01*
X997217Y629317D01*
X998619Y627489D01*
X1000447Y626087D01*
X1002576Y625205D01*
X1004860Y624905D01*
X1007144Y625205D01*
X1009273Y626087D01*
X1011101Y627489D01*
X1012503Y629317D01*
X1013385Y631446D01*
X1013686Y633730D01*
X1013385Y636014D01*
X1012503Y638143D01*
X1011101Y639971D01*
X1009273Y641373D01*
X1007144Y642255D01*
X1004860Y642555D01*
D02*
G37*
G36*
X979460D02*
X977176Y642255D01*
X975047Y641373D01*
X973219Y639971D01*
X971817Y638143D01*
X970935Y636014D01*
X970635Y633730D01*
X970935Y631446D01*
X971817Y629317D01*
X973219Y627489D01*
X975047Y626087D01*
X977176Y625205D01*
X979460Y624905D01*
X981744Y625205D01*
X983873Y626087D01*
X985701Y627489D01*
X987103Y629317D01*
X987985Y631446D01*
X988286Y633730D01*
X987985Y636014D01*
X987103Y638143D01*
X985701Y639971D01*
X983873Y641373D01*
X981744Y642255D01*
X979460Y642555D01*
D02*
G37*
G36*
X1039010Y642480D02*
X1021510D01*
Y627935D01*
X1021510Y627503D01*
X1004811Y610804D01*
X1003032D01*
X968627Y610804D01*
X963823Y610804D01*
X960851D01*
D01*
X957353Y612015D01*
X956945Y612625D01*
X955291Y613730D01*
X953385Y614109D01*
X949816Y614876D01*
X949813Y614879D01*
X949712Y614899D01*
X949130Y615014D01*
X947616Y615014D01*
X938719D01*
X934669Y615014D01*
X930984Y615014D01*
X930984Y615014D01*
X925311Y615014D01*
X919437D01*
X919392Y615171D01*
X919390Y615181D01*
Y615181D01*
X919259Y615378D01*
X918285Y616835D01*
X916631Y617940D01*
X914680Y618328D01*
X912729Y617940D01*
X911075Y616835D01*
X909970Y615181D01*
X909582Y613230D01*
X909970Y611279D01*
X911075Y609625D01*
X912729Y608520D01*
X914680Y608132D01*
X916631Y608520D01*
X918285Y609625D01*
X919258Y611082D01*
X919390Y611279D01*
Y611279D01*
X919392Y611289D01*
X919437Y611446D01*
X924270D01*
X925055Y610743D01*
X927020Y607446D01*
X926892Y606800D01*
X927280Y604849D01*
X928385Y603195D01*
X929843Y602221D01*
X930039Y602090D01*
X930039D01*
X930049Y602088D01*
X930206Y602043D01*
X930206Y595037D01*
X929778Y594610D01*
X911224Y576056D01*
X911224Y576056D01*
Y576056D01*
X907918Y572750D01*
X907532Y572171D01*
X907396Y571488D01*
Y569510D01*
X906931Y568749D01*
X903756Y566332D01*
X903500Y566290D01*
X903000Y566356D01*
X900716Y566055D01*
X898587Y565173D01*
X896759Y563771D01*
X895357Y561943D01*
X894475Y559814D01*
X894174Y557530D01*
X894475Y555246D01*
X895357Y553117D01*
X896759Y551289D01*
X898587Y549887D01*
X900716Y549005D01*
X903000Y548704D01*
X905284Y549005D01*
X907413Y549887D01*
X909241Y551289D01*
X910643Y553117D01*
X911525Y555246D01*
X911825Y557530D01*
X911823Y557550D01*
X914424Y560806D01*
X916710Y560870D01*
X919585Y557611D01*
X919575Y557530D01*
X919875Y555246D01*
X920757Y553117D01*
X922159Y551289D01*
X923987Y549887D01*
X926116Y549005D01*
X928400Y548704D01*
X930684Y549005D01*
X932813Y549887D01*
X934641Y551289D01*
X936043Y553117D01*
X936925Y555246D01*
X937225Y557530D01*
X936925Y559814D01*
X936043Y561943D01*
X934641Y563771D01*
X933774Y564435D01*
Y565254D01*
X933639Y565937D01*
X933252Y566515D01*
X932975Y566792D01*
X932396Y567178D01*
X931714Y567314D01*
X923182D01*
X923182Y567314D01*
X923182Y567314D01*
X919904Y569057D01*
X919778Y569210D01*
X919436Y570929D01*
X919390Y571161D01*
X919390Y571161D01*
X919296Y571302D01*
X932487Y584494D01*
X935385Y587156D01*
X935385D01*
D01*
X943351D01*
X945443Y584137D01*
X945708Y583156D01*
X945412Y581670D01*
X945800Y579719D01*
X946905Y578065D01*
X946075Y574454D01*
X945839Y573270D01*
X952000D01*
Y570730D01*
X945839D01*
X946075Y569546D01*
X947465Y567465D01*
X946961Y562991D01*
X946157Y561943D01*
X945275Y559814D01*
X944975Y557530D01*
X945275Y555246D01*
X946157Y553117D01*
X947559Y551289D01*
X949387Y549887D01*
X951516Y549005D01*
X953800Y548704D01*
X956084Y549005D01*
X958213Y549887D01*
X960041Y551289D01*
X961443Y553117D01*
X962325Y555246D01*
X962626Y557530D01*
X962325Y559814D01*
X961443Y561943D01*
X960041Y563771D01*
X959029Y564547D01*
X958189Y565529D01*
X957960Y569013D01*
X960090Y572184D01*
X960379Y572616D01*
X972147D01*
X974045Y570173D01*
X974052Y569888D01*
X973307Y565663D01*
X972039Y564691D01*
X970430Y562593D01*
X969418Y560151D01*
X969241Y558800D01*
X989159D01*
X988982Y560151D01*
X987970Y562593D01*
X986361Y564691D01*
X984263Y566300D01*
X983475Y566626D01*
X982629Y570301D01*
X982651Y570863D01*
X982700Y571072D01*
X983620Y572449D01*
X984008Y574400D01*
X983620Y576351D01*
X982515Y578005D01*
X980861Y579110D01*
X978910Y579498D01*
X976959Y579110D01*
X975305Y578005D01*
X974332Y576548D01*
X974200Y576351D01*
Y576351D01*
X974198Y576341D01*
X974167Y576184D01*
X973348D01*
Y576184D01*
X959072D01*
Y576184D01*
X958519D01*
X958331Y576372D01*
X955126Y579578D01*
X955220Y579719D01*
X955608Y581670D01*
X955312Y583156D01*
X955577Y584137D01*
X955668Y584267D01*
X959765Y585335D01*
X961419Y584230D01*
X963370Y583842D01*
X965321Y584230D01*
X966975Y585335D01*
X968080Y586989D01*
X968468Y588940D01*
X968080Y590891D01*
X966975Y592545D01*
X966921Y592581D01*
X966531Y593675D01*
X966106Y597000D01*
X966221Y597493D01*
X966925Y598546D01*
X967161Y599730D01*
X961000D01*
Y602270D01*
X967161D01*
X966969Y603236D01*
X966961Y603513D01*
X968949Y606804D01*
X969209Y607236D01*
X1003913D01*
X1005550Y607236D01*
X1006131Y607351D01*
D01*
X1006233Y607371D01*
X1006318Y607429D01*
X1006319Y607429D01*
X1006319Y607429D01*
X1006319Y607429D01*
X1006812Y607758D01*
X1024033Y624980D01*
X1024465Y624980D01*
X1039010Y624980D01*
Y642480D01*
D02*
G37*
G36*
X878870Y567489D02*
Y558800D01*
X887559D01*
X887382Y560151D01*
X886370Y562593D01*
X884761Y564691D01*
X882663Y566300D01*
X880221Y567312D01*
X878870Y567489D01*
D02*
G37*
G36*
X903260Y642555D02*
X900976Y642255D01*
X898847Y641373D01*
X897019Y639971D01*
X895617Y638143D01*
X894735Y636014D01*
X894435Y633730D01*
X894735Y631446D01*
X895617Y629317D01*
X897019Y627489D01*
X898847Y626087D01*
X900976Y625205D01*
X903260Y624905D01*
X905544Y625205D01*
X907673Y626087D01*
X909501Y627489D01*
X910903Y629317D01*
X911785Y631446D01*
X912085Y633730D01*
X911785Y636014D01*
X910903Y638143D01*
X909501Y639971D01*
X907673Y641373D01*
X905544Y642255D01*
X903260Y642555D01*
D02*
G37*
G36*
X877860D02*
X875576Y642255D01*
X873447Y641373D01*
X871619Y639971D01*
X870217Y638143D01*
X869335Y636014D01*
X869035Y633730D01*
X869335Y631446D01*
X870217Y629317D01*
X871619Y627489D01*
X873447Y626087D01*
X875576Y625205D01*
X877860Y624905D01*
X880144Y625205D01*
X882273Y626087D01*
X884101Y627489D01*
X885503Y629317D01*
X886385Y631446D01*
X886685Y633730D01*
X886385Y636014D01*
X885503Y638143D01*
X884101Y639971D01*
X882273Y641373D01*
X880144Y642255D01*
X877860Y642555D01*
D02*
G37*
%LPD*%
D14*
X1005550Y609020D02*
X1030260Y633730D01*
X953340Y609020D02*
X1005550D01*
X914680Y569210D02*
X934410Y588940D01*
X963370D01*
X916958Y563710D02*
X918778Y565530D01*
X931714D01*
X931990Y565254D01*
Y561120D02*
Y565254D01*
X909180Y571488D02*
X931990Y594298D01*
Y606800D01*
X909180Y566932D02*
Y571488D01*
Y566932D02*
X912402Y563710D01*
X916958D01*
X928400Y557530D02*
X931990Y561120D01*
X949130Y613230D02*
X953340Y609020D01*
X957780Y574400D02*
X978910D01*
X950510Y581670D02*
X957780Y574400D01*
X914680Y613230D02*
X949130D01*
D15*
X860000Y650000D02*
X860000Y540000D01*
X860000Y650000D02*
X1050000D01*
X1050000Y650000D02*
X1050000Y650000D01*
X1050000Y540000D02*
Y650000D01*
X860000Y540000D02*
X1050000D01*
D16*
X877860Y633730D02*
D03*
X903260D02*
D03*
X928660D02*
D03*
X954060D02*
D03*
X1004860D02*
D03*
X979460D02*
D03*
X877600Y557530D02*
D03*
X903000D02*
D03*
X928400D02*
D03*
X953800D02*
D03*
X1004600D02*
D03*
X979200D02*
D03*
D17*
X1030260Y633730D02*
D03*
X1030000Y557530D02*
D03*
D18*
X961000Y601000D02*
D03*
X952000Y572000D02*
D03*
X914680Y569210D02*
D03*
X963370Y588940D02*
D03*
X931990Y606800D02*
D03*
X953340Y609020D02*
D03*
X978910Y574400D02*
D03*
X950510Y581670D02*
D03*
X914680Y613230D02*
D03*
M02*
