G04 Layer_Color=8421504*
%FSLAX44Y44*%
%MOMM*%
G71*
G01*
G75*
G04:AMPARAMS|DCode=10|XSize=1.27mm|YSize=1.27mm|CornerRadius=0.1588mm|HoleSize=0mm|Usage=FLASHONLY|Rotation=270.000|XOffset=0mm|YOffset=0mm|HoleType=Round|Shape=RoundedRectangle|*
%AMROUNDEDRECTD10*
21,1,1.2700,0.9525,0,0,270.0*
21,1,0.9525,1.2700,0,0,270.0*
1,1,0.3175,-0.4763,-0.4763*
1,1,0.3175,-0.4763,0.4763*
1,1,0.3175,0.4763,0.4763*
1,1,0.3175,0.4763,-0.4763*
%
%ADD10ROUNDEDRECTD10*%
%ADD11R,1.3000X0.7000*%
%ADD12R,1.3000X0.9000*%
%ADD13C,0.1500*%
%ADD15C,0.1016*%
D10*
X1031860Y587265D02*
D03*
Y606315D02*
D03*
D11*
X1004550Y584099D02*
D03*
Y603099D02*
D03*
X914680Y584099D02*
D03*
Y603099D02*
D03*
D12*
X975650Y585369D02*
D03*
Y604369D02*
D03*
X882420Y604115D02*
D03*
Y585115D02*
D03*
D13*
X938280Y602690D02*
D03*
Y597690D02*
D03*
Y592690D02*
D03*
Y587690D02*
D03*
X943280Y602690D02*
D03*
Y597690D02*
D03*
Y592690D02*
D03*
Y587690D02*
D03*
X948280Y602690D02*
D03*
Y597690D02*
D03*
Y592690D02*
D03*
Y587690D02*
D03*
X953280Y602690D02*
D03*
Y597690D02*
D03*
Y592690D02*
D03*
Y587690D02*
D03*
D15*
X860000Y650000D02*
X860000Y540000D01*
X860000Y650000D02*
X1050000D01*
X1050000Y650000D02*
X1050000Y650000D01*
X1050000Y540000D02*
Y650000D01*
X860000Y540000D02*
X1050000D01*
M02*
