G04 Layer_Color=32896*
%FSLAX44Y44*%
%MOMM*%
G71*
G01*
G75*
%ADD14C,0.1000*%
%ADD15C,0.1016*%
%ADD29C,0.0254*%
D14*
X1009000Y618235D02*
Y615696D01*
X1003922Y610617D01*
X998843Y615696D01*
Y618235D01*
X1003922Y610617D02*
Y603000D01*
X991226D02*
X986147D01*
X983608Y605539D01*
Y610617D01*
X986147Y613157D01*
X991226D01*
X993765Y610617D01*
Y605539D01*
X991226Y603000D01*
X968373Y613157D02*
X975991D01*
X978530Y610617D01*
Y605539D01*
X975991Y603000D01*
X968373D01*
X960756Y615696D02*
Y613157D01*
X963295D01*
X958216D01*
X960756D01*
Y605539D01*
X958216Y603000D01*
X948060D02*
X942981D01*
X940442Y605539D01*
Y610617D01*
X942981Y613157D01*
X948060D01*
X950599Y610617D01*
Y605539D01*
X948060Y603000D01*
X935364Y618235D02*
Y603000D01*
X927746D01*
X925207Y605539D01*
Y608078D01*
X927746Y610617D01*
X935364D01*
X927746D01*
X925207Y613157D01*
Y615696D01*
X927746Y618235D01*
X935364D01*
X917590Y603000D02*
X912511D01*
X909972Y605539D01*
Y610617D01*
X912511Y613157D01*
X917590D01*
X920129Y610617D01*
Y605539D01*
X917590Y603000D01*
X904894Y618235D02*
Y603000D01*
X897276D01*
X894737Y605539D01*
Y608078D01*
Y610617D01*
X897276Y613157D01*
X904894D01*
D15*
X860000Y650000D02*
X860000Y540000D01*
X860000Y650000D02*
X1050000D01*
X1050000Y650000D02*
X1050000Y650000D01*
X1050000Y540000D02*
Y650000D01*
X860000Y540000D02*
X1050000D01*
D29*
X948792Y601874D02*
X953617D01*
X948538Y601620D02*
X953872D01*
X948538Y601366D02*
X953872D01*
X948538Y601112D02*
X953872D01*
X948538Y600858D02*
X954126D01*
X948538Y600604D02*
X954126D01*
X948283Y600350D02*
X954126D01*
X948283Y600096D02*
X954126D01*
X948283Y599842D02*
X954126D01*
X948283Y599588D02*
X954380D01*
X948283Y599334D02*
X954380D01*
X948029Y599080D02*
X954380D01*
X948029Y598826D02*
X954380D01*
X948029Y598572D02*
X954380D01*
X948029Y598318D02*
X954633D01*
X939648Y598064D02*
X940155D01*
X948029D02*
X954633D01*
X962507D02*
X963016D01*
X939393Y597810D02*
X940409D01*
X947775D02*
X954633D01*
X962000D02*
X963016D01*
X939139Y597556D02*
X940918D01*
X947775D02*
X954633D01*
X961491D02*
X963523D01*
X938885Y597302D02*
X941425D01*
X947775D02*
X954633D01*
X961237D02*
X963777D01*
X938632Y597048D02*
X941680D01*
X947775D02*
X954887D01*
X960984D02*
X964032D01*
X938378Y596794D02*
X941934D01*
X947775D02*
X954887D01*
X960730D02*
X964286D01*
X938123Y596540D02*
X942188D01*
X947268D02*
X955396D01*
X960221D02*
X964539D01*
X937869Y596286D02*
X942695D01*
X946506D02*
X955903D01*
X959714D02*
X964793D01*
X937616Y596032D02*
X942950D01*
X945997D02*
X956665D01*
X959460D02*
X964793D01*
X937362Y595778D02*
X943457D01*
X945236D02*
X957428D01*
X958951D02*
X965302D01*
X937107Y595524D02*
X943966D01*
X944473D02*
X957935D01*
X958698D02*
X965555D01*
X936853Y595270D02*
X965809D01*
X936600Y595016D02*
X966064D01*
X936346Y594762D02*
X966318D01*
X936346Y594508D02*
X966318D01*
X936346Y594254D02*
X966064D01*
X936600Y594000D02*
X966064D01*
X936853Y593746D02*
X965809D01*
X937107Y593492D02*
X965555D01*
X937107Y593238D02*
X965302D01*
X937362Y592984D02*
X965302D01*
X937616Y592730D02*
X965048D01*
X937616Y592476D02*
X964793D01*
X937869Y592222D02*
X964793D01*
X938123Y591968D02*
X964539D01*
X938123Y591714D02*
X964286D01*
X938378Y591460D02*
X964286D01*
X938632Y591206D02*
X964032D01*
X938632Y590952D02*
X963777D01*
X938885Y590698D02*
X963523D01*
X939139Y590444D02*
X963523D01*
X938885Y590190D02*
X963523D01*
X938885Y589936D02*
X963523D01*
X938632Y589682D02*
X963777D01*
X938632Y589428D02*
X963777D01*
X938632Y589174D02*
X964032D01*
X938378Y588920D02*
X964032D01*
X938378Y588666D02*
X964286D01*
X938123Y588412D02*
X950315D01*
X952094D02*
X964286D01*
X938123Y588158D02*
X949554D01*
X953110D02*
X964539D01*
X938123Y587904D02*
X948792D01*
X953617D02*
X964539D01*
X937869Y587650D02*
X948538D01*
X954126D02*
X964539D01*
X937869Y587396D02*
X948029D01*
X954380D02*
X964793D01*
X937869Y587142D02*
X947775D01*
X954633D02*
X964793D01*
X937616Y586888D02*
X947522D01*
X954887D02*
X964793D01*
X936600Y586634D02*
X947268D01*
X955396D02*
X965809D01*
X935583Y586380D02*
X947013D01*
X955396D02*
X967079D01*
X934314Y586126D02*
X947013D01*
X955649D02*
X968350D01*
X932790Y585872D02*
X946759D01*
X955903D02*
X969620D01*
X932535Y585618D02*
X946506D01*
X955903D02*
X970127D01*
X932535Y585364D02*
X946506D01*
X955903D02*
X970127D01*
X932535Y585110D02*
X946252D01*
X956158D02*
X970127D01*
X932535Y584856D02*
X946252D01*
X956158D02*
X970127D01*
X932535Y584602D02*
X946252D01*
X956412D02*
X970127D01*
X932535Y584348D02*
X946252D01*
X956412D02*
X970127D01*
X932535Y584094D02*
X945997D01*
X956412D02*
X970127D01*
X932535Y583840D02*
X945997D01*
X956412D02*
X970127D01*
X932535Y583586D02*
X945997D01*
X956412D02*
X970127D01*
X932535Y583332D02*
X945997D01*
X956412D02*
X970127D01*
X932535Y583078D02*
X945997D01*
X956412D02*
X970127D01*
X932535Y582824D02*
X945997D01*
X956412D02*
X970127D01*
X932535Y582570D02*
X945997D01*
X956412D02*
X970127D01*
X932535Y582316D02*
X945997D01*
X956412D02*
X970127D01*
X932535Y582062D02*
X946252D01*
X956412D02*
X970127D01*
X932535Y581808D02*
X946252D01*
X956412D02*
X970127D01*
X932535Y581554D02*
X946252D01*
X956158D02*
X970127D01*
X932535Y581300D02*
X946252D01*
X956158D02*
X970127D01*
X932535Y581046D02*
X946506D01*
X955903D02*
X970127D01*
X932535Y580792D02*
X946506D01*
X955903D02*
X970127D01*
X933298Y580538D02*
X946759D01*
X955649D02*
X969365D01*
X934567Y580284D02*
X947013D01*
X955649D02*
X967841D01*
X935837Y580030D02*
X947268D01*
X955396D02*
X966572D01*
X937107Y579776D02*
X947268D01*
X955396D02*
X965302D01*
X937616Y579522D02*
X947522D01*
X955142D02*
X965048D01*
X937616Y579268D02*
X947775D01*
X954633D02*
X964793D01*
X937869Y579014D02*
X948283D01*
X954380D02*
X964793D01*
X937869Y578760D02*
X948538D01*
X953872D02*
X964793D01*
X937869Y578506D02*
X948792D01*
X953617D02*
X964793D01*
X938123Y578252D02*
X949299D01*
X953363D02*
X964539D01*
X938123Y577998D02*
X949299D01*
X953363D02*
X964539D01*
X938123Y577744D02*
X949045D01*
X953363D02*
X964286D01*
X938378Y577490D02*
X949045D01*
X953617D02*
X964286D01*
X938378Y577236D02*
X948792D01*
X953617D02*
X964032D01*
X938632Y576982D02*
X948792D01*
X953872D02*
X964032D01*
X938632Y576728D02*
X948538D01*
X953872D02*
X964032D01*
X938632Y576474D02*
X948538D01*
X953872D02*
X963777D01*
X938885Y576220D02*
X948538D01*
X954126D02*
X963777D01*
X938885Y575966D02*
X948283D01*
X954126D02*
X963523D01*
X938885Y575712D02*
X948283D01*
X954380D02*
X963777D01*
X938632Y575458D02*
X948029D01*
X954380D02*
X963777D01*
X938378Y575204D02*
X948029D01*
X954633D02*
X964032D01*
X938378Y574950D02*
X947775D01*
X954633D02*
X964286D01*
X938123Y574696D02*
X947775D01*
X954887D02*
X964286D01*
X938123Y574442D02*
X947775D01*
X954887D02*
X964539D01*
X937869Y574188D02*
X947775D01*
X954887D02*
X964793D01*
X937616Y573934D02*
X947522D01*
X955142D02*
X964793D01*
X937362Y573680D02*
X947268D01*
X955142D02*
X965048D01*
X937362Y573426D02*
X947268D01*
X955396D02*
X965302D01*
X937107Y573172D02*
X947268D01*
X955396D02*
X965302D01*
X936853Y572918D02*
X947013D01*
X955396D02*
X965555D01*
X936853Y572664D02*
X947013D01*
X955649D02*
X965809D01*
X936600Y572410D02*
X946759D01*
X955649D02*
X966064D01*
X936346Y572156D02*
X946759D01*
X955649D02*
X966064D01*
X936346Y571902D02*
X946506D01*
X955903D02*
X966318D01*
X936346Y571648D02*
X946506D01*
X955903D02*
X966064D01*
X936600Y571394D02*
X946506D01*
X956158D02*
X965809D01*
X936853Y571140D02*
X946252D01*
X956158D02*
X965555D01*
X937107Y570886D02*
X946252D01*
X956412D02*
X965302D01*
X937362Y570632D02*
X943457D01*
X944220D02*
X945997D01*
X956412D02*
X958189D01*
X959205D02*
X965048D01*
X937616Y570378D02*
X943204D01*
X944727D02*
X945997D01*
X956412D02*
X957682D01*
X959460D02*
X964793D01*
X937869Y570124D02*
X942441D01*
X945490D02*
X945743D01*
X956665D02*
X957173D01*
X959967D02*
X964539D01*
X938123Y569870D02*
X942188D01*
X960475D02*
X964286D01*
X938378Y569616D02*
X941934D01*
X960730D02*
X964032D01*
X938632Y569362D02*
X941680D01*
X960984D02*
X963777D01*
X938885Y569108D02*
X941171D01*
X961237D02*
X963523D01*
X939139Y568854D02*
X940664D01*
X961746D02*
X963270D01*
X939393Y568600D02*
X940409D01*
X962000D02*
X963016D01*
X962507Y568346D02*
X962762D01*
M02*
