G04 Layer_Physical_Order=1*
G04 Layer_Color=255*
%FSLAX44Y44*%
%MOMM*%
G71*
G01*
G75*
G04:AMPARAMS|DCode=10|XSize=1.27mm|YSize=1.27mm|CornerRadius=0.1588mm|HoleSize=0mm|Usage=FLASHONLY|Rotation=270.000|XOffset=0mm|YOffset=0mm|HoleType=Round|Shape=RoundedRectangle|*
%AMROUNDEDRECTD10*
21,1,1.2700,0.9525,0,0,270.0*
21,1,0.9525,1.2700,0,0,270.0*
1,1,0.3175,-0.4763,-0.4763*
1,1,0.3175,-0.4763,0.4763*
1,1,0.3175,0.4763,0.4763*
1,1,0.3175,0.4763,-0.4763*
%
%ADD10ROUNDEDRECTD10*%
%ADD11R,1.3000X0.7000*%
%ADD12R,1.3000X0.9000*%
%ADD13C,0.1500*%
%ADD14C,0.1000*%
%ADD15C,0.1016*%
%ADD16C,1.5000*%
%ADD17R,1.5000X1.5000*%
%ADD18C,0.7500*%
G36*
X1050000Y650000D02*
Y540000D01*
X860000D01*
X860000Y649647D01*
X860353Y650000D01*
X1050000D01*
X1050000Y650000D01*
D02*
G37*
%LPC*%
G36*
X890170Y609865D02*
X874670D01*
Y598365D01*
X890170D01*
Y602331D01*
X893925D01*
X906938Y589318D01*
X906930Y588849D01*
X906930D01*
X906930Y588849D01*
Y579349D01*
X912896D01*
Y573953D01*
X912729Y573920D01*
X911075Y572815D01*
X909970Y571161D01*
X909582Y569210D01*
X909970Y567259D01*
X910064Y567118D01*
X907813Y564866D01*
X907413Y565173D01*
X905284Y566055D01*
X903000Y566356D01*
X900716Y566055D01*
X898587Y565173D01*
X896759Y563771D01*
X895357Y561943D01*
X894475Y559814D01*
X894174Y557530D01*
X894475Y555246D01*
X895357Y553117D01*
X896759Y551289D01*
X898587Y549887D01*
X900716Y549005D01*
X903000Y548704D01*
X905284Y549005D01*
X907413Y549887D01*
X909241Y551289D01*
X910643Y553117D01*
X911525Y555246D01*
X911825Y557530D01*
X911525Y559814D01*
X910643Y561943D01*
X910336Y562343D01*
X912588Y564594D01*
X912729Y564500D01*
X914680Y564112D01*
X916631Y564500D01*
X918285Y565605D01*
X919390Y567259D01*
X919778Y569210D01*
X919390Y571161D01*
X918285Y572815D01*
X916631Y573920D01*
X916464Y573953D01*
Y579349D01*
X922430D01*
Y588849D01*
X912453D01*
X895926Y605377D01*
X895347Y605764D01*
X894664Y605899D01*
X890170D01*
Y609865D01*
D02*
G37*
G36*
X878870Y567489D02*
Y558800D01*
X887559D01*
X887382Y560151D01*
X886370Y562593D01*
X884761Y564691D01*
X882663Y566300D01*
X880221Y567312D01*
X878870Y567489D01*
D02*
G37*
G36*
X891460Y583845D02*
X883690D01*
Y578075D01*
X891460D01*
Y583845D01*
D02*
G37*
G36*
X881150D02*
X873380D01*
Y578075D01*
X881150D01*
Y583845D01*
D02*
G37*
G36*
X887559Y556260D02*
X878870D01*
Y547571D01*
X880221Y547748D01*
X882663Y548760D01*
X884761Y550369D01*
X886370Y552467D01*
X887382Y554909D01*
X887559Y556260D01*
D02*
G37*
G36*
X876330D02*
X867641D01*
X867818Y554909D01*
X868830Y552467D01*
X870439Y550369D01*
X872537Y548760D01*
X874979Y547748D01*
X876330Y547571D01*
Y556260D01*
D02*
G37*
G36*
Y567489D02*
X874979Y567312D01*
X872537Y566300D01*
X870439Y564691D01*
X868830Y562593D01*
X867818Y560151D01*
X867641Y558800D01*
X876330D01*
Y567489D01*
D02*
G37*
G36*
X928400Y566356D02*
X926116Y566055D01*
X923987Y565173D01*
X922159Y563771D01*
X920757Y561943D01*
X919875Y559814D01*
X919575Y557530D01*
X919875Y555246D01*
X920757Y553117D01*
X922159Y551289D01*
X923987Y549887D01*
X926116Y549005D01*
X928400Y548704D01*
X930684Y549005D01*
X932813Y549887D01*
X934641Y551289D01*
X936043Y553117D01*
X936925Y555246D01*
X937225Y557530D01*
X936925Y559814D01*
X936043Y561943D01*
X934641Y563771D01*
X932813Y565173D01*
X930684Y566055D01*
X928400Y566356D01*
D02*
G37*
G36*
X1030590Y585995D02*
X1022889D01*
Y582503D01*
X1023210Y580892D01*
X1024122Y579527D01*
X1025487Y578615D01*
X1027097Y578294D01*
X1030590D01*
Y585995D01*
D02*
G37*
G36*
X1036622Y613971D02*
X1027097D01*
X1025990Y613750D01*
X1025052Y613123D01*
X1024425Y612185D01*
X1024204Y611077D01*
Y608099D01*
X1007766D01*
X1007083Y607963D01*
X1006912Y607849D01*
X996800D01*
Y598349D01*
X1012300D01*
Y604531D01*
X1024204D01*
Y601553D01*
X1024425Y600445D01*
X1025052Y599507D01*
X1025990Y598880D01*
X1027097Y598659D01*
X1036622D01*
X1037730Y598880D01*
X1038668Y599507D01*
X1039295Y600445D01*
X1039516Y601553D01*
Y611077D01*
X1039295Y612185D01*
X1038668Y613123D01*
X1037730Y613750D01*
X1036622Y613971D01*
D02*
G37*
G36*
Y596236D02*
X1033130D01*
Y588535D01*
X1040831D01*
Y592028D01*
X1040510Y593638D01*
X1039598Y595003D01*
X1038233Y595915D01*
X1036622Y596236D01*
D02*
G37*
G36*
X1039010Y642480D02*
X1021510D01*
Y624980D01*
X1039010D01*
Y642480D01*
D02*
G37*
G36*
X944810Y644764D02*
X924828D01*
X924146Y644629D01*
X923567Y644242D01*
X918148Y638823D01*
X917762Y638244D01*
X917626Y637561D01*
Y629898D01*
X917762Y629216D01*
X918148Y628637D01*
X924706Y622079D01*
Y614159D01*
X924244Y613968D01*
X918220Y619992D01*
X917641Y620378D01*
X916958Y620514D01*
X912979D01*
X907840Y625653D01*
X907922Y626278D01*
X909501Y627489D01*
X910903Y629317D01*
X911785Y631446D01*
X912085Y633730D01*
X911785Y636014D01*
X910903Y638143D01*
X909501Y639971D01*
X907673Y641373D01*
X905544Y642255D01*
X903260Y642555D01*
X900976Y642255D01*
X898847Y641373D01*
X897019Y639971D01*
X895617Y638143D01*
X894735Y636014D01*
X894435Y633730D01*
X894735Y631446D01*
X895617Y629317D01*
X897019Y627489D01*
X898847Y626087D01*
X900976Y625205D01*
X903260Y624905D01*
X903509Y624937D01*
X910978Y617468D01*
X911127Y617369D01*
Y616869D01*
X911075Y616835D01*
X909970Y615181D01*
X909582Y613230D01*
X909970Y611279D01*
X911075Y609625D01*
X912729Y608520D01*
X912896Y608487D01*
Y607849D01*
X906930D01*
Y607837D01*
X906468Y607645D01*
X885196Y628917D01*
X885503Y629317D01*
X886385Y631446D01*
X886685Y633730D01*
X886385Y636014D01*
X885503Y638143D01*
X884101Y639971D01*
X882273Y641373D01*
X880144Y642255D01*
X877860Y642555D01*
X875576Y642255D01*
X873447Y641373D01*
X871619Y639971D01*
X870217Y638143D01*
X869335Y636014D01*
X869035Y633730D01*
X869335Y631446D01*
X870217Y629317D01*
X871619Y627489D01*
X873447Y626087D01*
X875576Y625205D01*
X877860Y624905D01*
X880144Y625205D01*
X882273Y626087D01*
X882673Y626394D01*
X904646Y604421D01*
Y598874D01*
X904781Y598191D01*
X905168Y597612D01*
X911352Y591428D01*
X911931Y591041D01*
X912614Y590906D01*
X934005D01*
X935983Y588928D01*
X936480Y588596D01*
X936396Y588470D01*
X936241Y587690D01*
X936396Y586910D01*
X936496Y586760D01*
Y573050D01*
X936632Y572367D01*
X937018Y571788D01*
X946464Y562343D01*
X946157Y561943D01*
X945275Y559814D01*
X944975Y557530D01*
X945275Y555246D01*
X946157Y553117D01*
X947559Y551289D01*
X949387Y549887D01*
X951516Y549005D01*
X953800Y548704D01*
X956084Y549005D01*
X958213Y549887D01*
X960041Y551289D01*
X961443Y553117D01*
X962325Y555246D01*
X962626Y557530D01*
X962580Y557876D01*
X963028Y558097D01*
X974107Y547018D01*
X974686Y546632D01*
X975368Y546496D01*
X1020750D01*
X1021433Y546632D01*
X1022012Y547018D01*
X1023773Y548780D01*
X1038750D01*
Y566280D01*
X1021250D01*
Y551303D01*
X1020011Y550064D01*
X1010022D01*
X1009861Y550538D01*
X1010841Y551289D01*
X1012243Y553117D01*
X1013125Y555246D01*
X1013426Y557530D01*
X1013125Y559814D01*
X1012243Y561943D01*
X1010841Y563771D01*
X1009013Y565173D01*
X1006884Y566055D01*
X1004600Y566356D01*
X1002316Y566055D01*
X1000187Y565173D01*
X998359Y563771D01*
X996957Y561943D01*
X996075Y559814D01*
X996009Y559314D01*
X993021D01*
X984293Y568042D01*
X983714Y568428D01*
X983031Y568564D01*
X978465D01*
X978042Y568987D01*
X978278Y569428D01*
X978910Y569302D01*
X980861Y569690D01*
X982515Y570795D01*
X983620Y572449D01*
X984008Y574400D01*
X983620Y576351D01*
X982515Y578005D01*
X980861Y579110D01*
X980815Y579119D01*
X980865Y579619D01*
X983400D01*
Y588227D01*
X985162Y589988D01*
X985548Y590567D01*
X985684Y591250D01*
Y609594D01*
X985548Y610277D01*
X985162Y610855D01*
X984690Y611327D01*
Y611409D01*
X984608D01*
X984137Y611881D01*
X983558Y612267D01*
X982875Y612403D01*
X957093D01*
X956945Y612625D01*
X955291Y613730D01*
X953799Y614027D01*
X953634Y614569D01*
X959511Y620446D01*
X991576D01*
Y595289D01*
X991712Y594606D01*
X992098Y594027D01*
X996808Y589318D01*
X996800Y588849D01*
X996800D01*
X996800Y588849D01*
Y579349D01*
X1012300D01*
Y588849D01*
X1002323D01*
X995144Y596028D01*
Y621491D01*
X1000047Y626394D01*
X1000447Y626087D01*
X1002576Y625205D01*
X1004860Y624905D01*
X1007144Y625205D01*
X1009273Y626087D01*
X1011101Y627489D01*
X1012503Y629317D01*
X1013385Y631446D01*
X1013686Y633730D01*
X1013385Y636014D01*
X1012503Y638143D01*
X1011101Y639971D01*
X1009273Y641373D01*
X1007144Y642255D01*
X1004860Y642555D01*
X1002576Y642255D01*
X1000447Y641373D01*
X998619Y639971D01*
X997217Y638143D01*
X996335Y636014D01*
X996034Y633730D01*
X996335Y631446D01*
X997217Y629317D01*
X997524Y628917D01*
X992621Y624014D01*
X972921D01*
X972730Y624476D01*
X974647Y626394D01*
X975047Y626087D01*
X977176Y625205D01*
X979460Y624905D01*
X981744Y625205D01*
X983873Y626087D01*
X985701Y627489D01*
X987103Y629317D01*
X987985Y631446D01*
X988286Y633730D01*
X987985Y636014D01*
X987103Y638143D01*
X985701Y639971D01*
X983873Y641373D01*
X981744Y642255D01*
X979460Y642555D01*
X977176Y642255D01*
X975047Y641373D01*
X973219Y639971D01*
X971817Y638143D01*
X970935Y636014D01*
X970635Y633730D01*
X970935Y631446D01*
X971817Y629317D01*
X972124Y628917D01*
X969471Y626264D01*
X959482D01*
X959321Y626738D01*
X960301Y627489D01*
X961703Y629317D01*
X962585Y631446D01*
X962886Y633730D01*
X962585Y636014D01*
X961703Y638143D01*
X960301Y639971D01*
X958473Y641373D01*
X956344Y642255D01*
X954060Y642555D01*
X951776Y642255D01*
X949647Y641373D01*
X949247Y641066D01*
X946072Y644242D01*
X945493Y644629D01*
X944810Y644764D01*
D02*
G37*
G36*
X1040831Y585995D02*
X1033130D01*
Y578294D01*
X1036622D01*
X1038233Y578615D01*
X1039598Y579527D01*
X1040510Y580892D01*
X1040831Y582503D01*
Y585995D01*
D02*
G37*
G36*
X881150Y592155D02*
X873380D01*
Y586385D01*
X881150D01*
Y592155D01*
D02*
G37*
G36*
X1030590Y596236D02*
X1027097D01*
X1025487Y595915D01*
X1024122Y595003D01*
X1023210Y593638D01*
X1022889Y592028D01*
Y588535D01*
X1030590D01*
Y596236D01*
D02*
G37*
G36*
X891460Y592155D02*
X883690D01*
Y586385D01*
X891460D01*
Y592155D01*
D02*
G37*
%LPD*%
G36*
X946724Y638543D02*
X946417Y638143D01*
X945535Y636014D01*
X945235Y633730D01*
X945535Y631446D01*
X946417Y629317D01*
X947819Y627489D01*
X949647Y626087D01*
X951776Y625205D01*
X954060Y624905D01*
X955225Y625058D01*
X955446Y624609D01*
X944328Y613492D01*
X943941Y612913D01*
X943806Y612230D01*
Y605019D01*
X943419Y604701D01*
X943280Y604729D01*
X942951Y604664D01*
X942564Y604981D01*
Y621610D01*
X942429Y622293D01*
X942042Y622872D01*
X935996Y628917D01*
X936303Y629317D01*
X937185Y631446D01*
X937486Y633730D01*
X937185Y636014D01*
X936303Y638143D01*
X934901Y639971D01*
X933921Y640722D01*
X934082Y641196D01*
X944071D01*
X946724Y638543D01*
D02*
G37*
D10*
X1031860Y587265D02*
D03*
Y606315D02*
D03*
D11*
X1004550Y584099D02*
D03*
Y603099D02*
D03*
X914680Y584099D02*
D03*
Y603099D02*
D03*
D12*
X975650Y585369D02*
D03*
Y604369D02*
D03*
X882420Y604115D02*
D03*
Y585115D02*
D03*
D13*
X938280Y602690D02*
D03*
Y597690D02*
D03*
Y592690D02*
D03*
Y587690D02*
D03*
X943280Y602690D02*
D03*
Y597690D02*
D03*
Y592690D02*
D03*
Y587690D02*
D03*
X948280Y602690D02*
D03*
Y597690D02*
D03*
Y592690D02*
D03*
Y587690D02*
D03*
X953280Y602690D02*
D03*
Y597690D02*
D03*
Y592690D02*
D03*
Y587690D02*
D03*
D14*
X972281Y601000D02*
X975650Y604369D01*
X961000Y601000D02*
X972281D01*
X957690Y597690D02*
X961000Y601000D01*
X953280Y597690D02*
X957690D01*
X975650Y577660D02*
Y583000D01*
X983900Y591250D01*
Y609594D01*
X982875Y610619D02*
X983900Y609594D01*
X954939Y610619D02*
X982875D01*
X953340Y609020D02*
X954939Y610619D01*
X1007766Y606315D02*
X1031860D01*
X1004550Y603099D02*
X1007766Y606315D01*
X943280Y580720D02*
X952000Y572000D01*
X943280Y580720D02*
Y587690D01*
X959811Y592499D02*
X963370Y588940D01*
X953471Y592499D02*
X959811D01*
X953280Y592690D02*
X953471Y592499D01*
X993360Y595289D02*
X1004550Y584099D01*
X993360Y595289D02*
Y622230D01*
X903000Y557530D02*
X914680Y569210D01*
Y584099D01*
X894664Y604115D02*
X914680Y584099D01*
X882420Y604115D02*
X894664D01*
X954315Y590190D02*
X977726Y566780D01*
X952244Y590190D02*
X954315D01*
X952244Y590190D02*
X952244Y590190D01*
X950780Y590190D02*
X952244D01*
X926490Y604522D02*
Y622818D01*
Y604522D02*
X929712Y601300D01*
X932852D01*
X934694Y599458D01*
X938280D01*
Y597690D02*
Y599458D01*
X924240Y603590D02*
Y611448D01*
X916958Y618730D02*
X924240Y611448D01*
X931920Y599050D02*
X938280Y592690D01*
X928780Y599050D02*
X931920D01*
X924240Y603590D02*
X928780Y599050D01*
X931990Y606800D02*
X934170D01*
X947840Y611298D02*
X958772Y622230D01*
X945590Y612230D02*
X957840Y624480D01*
X953280Y608960D02*
X953340Y609020D01*
X953280Y602690D02*
Y608960D01*
X945590Y603232D02*
Y612230D01*
X957840Y624480D02*
X970210D01*
X947840Y603130D02*
Y611298D01*
X958772Y622230D02*
X993360D01*
X939316Y590190D02*
X941816Y592690D01*
X937244Y590190D02*
X939316D01*
X934744Y592690D02*
X937244Y590190D01*
X1020750Y548280D02*
X1030000Y557530D01*
X975368Y548280D02*
X1020750D01*
X963050Y560598D02*
X975368Y548280D01*
X963050Y560598D02*
Y577920D01*
X953280Y587690D02*
X963050Y577920D01*
X983031Y566780D02*
X992281Y557530D01*
X977726Y566780D02*
X983031D01*
X975650Y577660D02*
X978910Y574400D01*
X992281Y557530D02*
X1004600D01*
X950510Y581670D02*
Y585460D01*
X948280Y587690D02*
X950510Y585460D01*
X948280Y592690D02*
X950780Y590190D01*
X938280Y573050D02*
X953800Y557530D01*
X938280Y573050D02*
Y587690D01*
X903260Y627710D02*
Y633730D01*
Y627710D02*
X912240Y618730D01*
X916958D01*
X912614Y592690D02*
X934744D01*
X906430Y598874D02*
X912614Y592690D01*
X906430Y598874D02*
Y605160D01*
X877860Y633730D02*
X906430Y605160D01*
X944810Y642980D02*
X954060Y633730D01*
X924828Y642980D02*
X944810D01*
X919410Y637561D02*
X924828Y642980D01*
X919410Y629898D02*
Y637561D01*
Y629898D02*
X926490Y622818D01*
X940780Y603726D02*
Y621610D01*
X928660Y633730D02*
X940780Y621610D01*
X940780Y601654D02*
X943280Y599154D01*
X940780Y601654D02*
Y603726D01*
X940780Y603726D01*
X934170Y606800D02*
X938280Y602690D01*
X993360Y622230D02*
X1004860Y633730D01*
X970210Y624480D02*
X979460Y633730D01*
X945048Y602690D02*
X945590Y603232D01*
X943280Y602690D02*
X945048D01*
X947840Y603130D02*
X948280Y602690D01*
X914680Y603099D02*
Y613230D01*
X941816Y592690D02*
X943280D01*
Y597690D02*
Y599154D01*
D15*
X860000Y650000D02*
X860000Y540000D01*
X860000Y650000D02*
X1050000D01*
X1050000Y650000D02*
X1050000Y650000D01*
X1050000Y540000D02*
Y650000D01*
X860000Y540000D02*
X1050000D01*
D16*
X877860Y633730D02*
D03*
X903260D02*
D03*
X928660D02*
D03*
X954060D02*
D03*
X1004860D02*
D03*
X979460D02*
D03*
X877600Y557530D02*
D03*
X903000D02*
D03*
X928400D02*
D03*
X953800D02*
D03*
X1004600D02*
D03*
X979200D02*
D03*
D17*
X1030260Y633730D02*
D03*
X1030000Y557530D02*
D03*
D18*
X961000Y601000D02*
D03*
X952000Y572000D02*
D03*
X914680Y569210D02*
D03*
X963370Y588940D02*
D03*
X931990Y606800D02*
D03*
X953340Y609020D02*
D03*
X978910Y574400D02*
D03*
X950510Y581670D02*
D03*
X914680Y613230D02*
D03*
M02*
