M48
;Layer_Color=9474304
;FILE_FORMAT=4:4
METRIC
;TYPE=PLATED
T1F00S00C0.2500
T2F00S00C0.9000
%
T01
X00914680Y00569210
X00952000Y00572000
X00950510Y00581670
X00963370Y00588940
X00961000Y00601000
X00953340Y00609020
X00931990Y00606800
X00914680Y00613230
X00978910Y00574400
T02
X00877600Y00557530
X00903000
X00928400
X00953800
X00979200
X01004600
X01030000
X01030260Y00633730
X01004860
X00979460
X00954060
X00928660
X00903260
X00877860
M30
