G04 Layer_Physical_Order=2*
G04 Layer_Color=16440176*
%FSAX44Y44*%
%MOMM*%
G71*
G01*
G75*
%ADD20C,0.1016*%
%ADD21C,1.5000*%
%ADD23C,0.4500*%
G36*
X00259250Y00005250D02*
X00258750Y00004750D01*
X00025899D01*
X00025003Y00005649D01*
X00025500Y00179750D01*
X00259250D01*
Y00005250D01*
D02*
G37*
%LPC*%
G36*
X00141250Y00082569D02*
X00139884Y00082297D01*
X00138727Y00081523D01*
X00137953Y00080366D01*
X00137681Y00079000D01*
X00137953Y00077634D01*
X00138727Y00076477D01*
X00139884Y00075703D01*
X00141250Y00075431D01*
X00142616Y00075703D01*
X00143773Y00076477D01*
X00144547Y00077634D01*
X00144819Y00079000D01*
X00144547Y00080366D01*
X00143773Y00081523D01*
X00142616Y00082297D01*
X00141250Y00082569D01*
D02*
G37*
G36*
X00181500Y00087069D02*
X00180134Y00086797D01*
X00178977Y00086023D01*
X00178203Y00084866D01*
X00177931Y00083500D01*
X00178203Y00082134D01*
X00178977Y00080977D01*
X00180134Y00080203D01*
X00181500Y00079931D01*
X00182866Y00080203D01*
X00184023Y00080977D01*
X00184797Y00082134D01*
X00185069Y00083500D01*
X00184797Y00084866D01*
X00184023Y00086023D01*
X00182866Y00086797D01*
X00181500Y00087069D01*
D02*
G37*
G36*
X00164720Y00039459D02*
Y00030770D01*
X00173409D01*
X00173232Y00032121D01*
X00172220Y00034563D01*
X00170611Y00036661D01*
X00168513Y00038270D01*
X00166071Y00039282D01*
X00164720Y00039459D01*
D02*
G37*
G36*
X00063120D02*
Y00030770D01*
X00071809D01*
X00071632Y00032121D01*
X00070620Y00034563D01*
X00069011Y00036661D01*
X00066913Y00038270D01*
X00064471Y00039282D01*
X00063120Y00039459D01*
D02*
G37*
G36*
X00162180D02*
X00160829Y00039282D01*
X00158387Y00038270D01*
X00156289Y00036661D01*
X00154680Y00034563D01*
X00153668Y00032121D01*
X00153491Y00030770D01*
X00162180D01*
Y00039459D01*
D02*
G37*
G36*
X00146638Y00091985D02*
X00143277D01*
Y00088623D01*
X00143876Y00088743D01*
X00145460Y00089801D01*
X00146519Y00091386D01*
X00146638Y00091985D01*
D02*
G37*
G36*
X00113505Y00096073D02*
X00112140Y00095801D01*
X00110982Y00095028D01*
X00110209Y00093870D01*
X00109937Y00092505D01*
X00110209Y00091139D01*
X00110982Y00089981D01*
X00112140Y00089208D01*
X00113505Y00088936D01*
X00114871Y00089208D01*
X00116029Y00089981D01*
X00116803Y00091139D01*
X00117074Y00092505D01*
X00116803Y00093870D01*
X00116029Y00095028D01*
X00114871Y00095801D01*
X00113505Y00096073D01*
D02*
G37*
G36*
X00140737Y00091985D02*
X00137376D01*
X00137495Y00091386D01*
X00138553Y00089801D01*
X00140138Y00088743D01*
X00140737Y00088623D01*
Y00091985D01*
D02*
G37*
G36*
X00103370Y00089259D02*
X00102004Y00088987D01*
X00100847Y00088213D01*
X00100073Y00087056D01*
X00099801Y00085690D01*
X00100073Y00084324D01*
X00100847Y00083167D01*
X00102004Y00082393D01*
X00103370Y00082121D01*
X00104736Y00082393D01*
X00105893Y00083167D01*
X00106667Y00084324D01*
X00106939Y00085690D01*
X00106667Y00087056D01*
X00105893Y00088213D01*
X00104736Y00088987D01*
X00103370Y00089259D01*
D02*
G37*
G36*
X00131776Y00086859D02*
X00130410Y00086587D01*
X00129253Y00085814D01*
X00129250Y00085810D01*
X00127495Y00085469D01*
X00127372Y00085551D01*
X00126006Y00085823D01*
X00124641Y00085551D01*
X00123483Y00084777D01*
X00122709Y00083620D01*
X00122438Y00082254D01*
X00122709Y00080888D01*
X00123483Y00079731D01*
X00124641Y00078957D01*
X00126006Y00078685D01*
X00127372Y00078957D01*
X00128530Y00079731D01*
X00128532Y00079734D01*
X00130287Y00080076D01*
X00130410Y00079993D01*
X00131776Y00079722D01*
X00133142Y00079993D01*
X00134299Y00080767D01*
X00135073Y00081925D01*
X00135345Y00083290D01*
X00135073Y00084656D01*
X00134299Y00085814D01*
X00133142Y00086587D01*
X00131776Y00086859D01*
D02*
G37*
G36*
X00173409Y00028230D02*
X00164720D01*
Y00019541D01*
X00166071Y00019718D01*
X00168513Y00020730D01*
X00170611Y00022339D01*
X00172220Y00024437D01*
X00173232Y00026879D01*
X00173409Y00028230D01*
D02*
G37*
G36*
X00087250Y00038326D02*
X00084966Y00038025D01*
X00082837Y00037143D01*
X00081009Y00035741D01*
X00079607Y00033913D01*
X00078725Y00031784D01*
X00078425Y00029500D01*
X00078725Y00027216D01*
X00079607Y00025087D01*
X00081009Y00023259D01*
X00082837Y00021857D01*
X00084966Y00020975D01*
X00087250Y00020675D01*
X00089534Y00020975D01*
X00091663Y00021857D01*
X00093491Y00023259D01*
X00094893Y00025087D01*
X00095775Y00027216D01*
X00096075Y00029500D01*
X00095775Y00031784D01*
X00094893Y00033913D01*
X00093491Y00035741D01*
X00091663Y00037143D01*
X00089534Y00038025D01*
X00087250Y00038326D01*
D02*
G37*
G36*
X00162180Y00028230D02*
X00153491D01*
X00153668Y00026879D01*
X00154680Y00024437D01*
X00156289Y00022339D01*
X00158387Y00020730D01*
X00160829Y00019718D01*
X00162180Y00019541D01*
Y00028230D01*
D02*
G37*
G36*
X00060580D02*
X00051891D01*
X00052068Y00026879D01*
X00053080Y00024437D01*
X00054689Y00022339D01*
X00056787Y00020730D01*
X00059229Y00019718D01*
X00060580Y00019541D01*
Y00028230D01*
D02*
G37*
G36*
X00071809D02*
X00063120D01*
Y00019541D01*
X00064471Y00019718D01*
X00066913Y00020730D01*
X00069011Y00022339D01*
X00070620Y00024437D01*
X00071632Y00026879D01*
X00071809Y00028230D01*
D02*
G37*
G36*
X00223000Y00038250D02*
X00205500D01*
Y00020750D01*
X00223000D01*
Y00038250D01*
D02*
G37*
G36*
X00060580Y00039459D02*
X00059229Y00039282D01*
X00056787Y00038270D01*
X00054689Y00036661D01*
X00053080Y00034563D01*
X00052068Y00032121D01*
X00051891Y00030770D01*
X00060580D01*
Y00039459D01*
D02*
G37*
G36*
X00188850Y00038326D02*
X00186566Y00038025D01*
X00184437Y00037143D01*
X00182609Y00035741D01*
X00181207Y00033913D01*
X00180325Y00031784D01*
X00180025Y00029500D01*
X00180325Y00027216D01*
X00181207Y00025087D01*
X00182609Y00023259D01*
X00184437Y00021857D01*
X00186566Y00020975D01*
X00188850Y00020675D01*
X00191134Y00020975D01*
X00193263Y00021857D01*
X00195091Y00023259D01*
X00196493Y00025087D01*
X00197375Y00027216D01*
X00197675Y00029500D01*
X00197375Y00031784D01*
X00196493Y00033913D01*
X00195091Y00035741D01*
X00193263Y00037143D01*
X00191134Y00038025D01*
X00188850Y00038326D01*
D02*
G37*
G36*
X00112650D02*
X00110366Y00038025D01*
X00108237Y00037143D01*
X00106409Y00035741D01*
X00105007Y00033913D01*
X00104125Y00031784D01*
X00103825Y00029500D01*
X00104125Y00027216D01*
X00105007Y00025087D01*
X00106409Y00023259D01*
X00108237Y00021857D01*
X00110366Y00020975D01*
X00112650Y00020675D01*
X00114934Y00020975D01*
X00117063Y00021857D01*
X00118891Y00023259D01*
X00120293Y00025087D01*
X00121175Y00027216D01*
X00121475Y00029500D01*
X00121175Y00031784D01*
X00120293Y00033913D01*
X00118891Y00035741D01*
X00117063Y00037143D01*
X00114934Y00038025D01*
X00112650Y00038326D01*
D02*
G37*
G36*
X00138050D02*
X00135766Y00038025D01*
X00133637Y00037143D01*
X00131809Y00035741D01*
X00130407Y00033913D01*
X00129525Y00031784D01*
X00129225Y00029500D01*
X00129525Y00027216D01*
X00130407Y00025087D01*
X00131809Y00023259D01*
X00133637Y00021857D01*
X00135766Y00020975D01*
X00138050Y00020675D01*
X00140334Y00020975D01*
X00142463Y00021857D01*
X00144291Y00023259D01*
X00145693Y00025087D01*
X00146575Y00027216D01*
X00146875Y00029500D01*
X00146575Y00031784D01*
X00145693Y00033913D01*
X00144291Y00035741D01*
X00142463Y00037143D01*
X00140334Y00038025D01*
X00138050Y00038326D01*
D02*
G37*
G36*
X00050000Y00097569D02*
X00048634Y00097297D01*
X00047477Y00096523D01*
X00046703Y00095366D01*
X00046431Y00094000D01*
X00046703Y00092634D01*
X00047477Y00091477D01*
X00048634Y00090703D01*
X00050000Y00090431D01*
X00051366Y00090703D01*
X00052523Y00091477D01*
X00053297Y00092634D01*
X00053569Y00094000D01*
X00053297Y00095366D01*
X00052523Y00096523D01*
X00051366Y00097297D01*
X00050000Y00097569D01*
D02*
G37*
G36*
X00061850Y00165326D02*
X00059566Y00165025D01*
X00057437Y00164143D01*
X00055609Y00162741D01*
X00054207Y00160913D01*
X00053325Y00158784D01*
X00053025Y00156500D01*
X00053325Y00154216D01*
X00054207Y00152087D01*
X00055609Y00150259D01*
X00057437Y00148857D01*
X00059566Y00147975D01*
X00061850Y00147675D01*
X00064134Y00147975D01*
X00066263Y00148857D01*
X00068091Y00150259D01*
X00069493Y00152087D01*
X00070375Y00154216D01*
X00070676Y00156500D01*
X00070375Y00158784D01*
X00069493Y00160913D01*
X00068091Y00162741D01*
X00066263Y00164143D01*
X00064134Y00165025D01*
X00061850Y00165326D01*
D02*
G37*
G36*
X00087250D02*
X00084966Y00165025D01*
X00082837Y00164143D01*
X00081009Y00162741D01*
X00079607Y00160913D01*
X00078725Y00158784D01*
X00078425Y00156500D01*
X00078725Y00154216D01*
X00079607Y00152087D01*
X00081009Y00150259D01*
X00082837Y00148857D01*
X00084966Y00147975D01*
X00087250Y00147675D01*
X00089534Y00147975D01*
X00091663Y00148857D01*
X00093491Y00150259D01*
X00094893Y00152087D01*
X00095775Y00154216D01*
X00096075Y00156500D01*
X00095775Y00158784D01*
X00094893Y00160913D01*
X00093491Y00162741D01*
X00091663Y00164143D01*
X00089534Y00165025D01*
X00087250Y00165326D01*
D02*
G37*
G36*
X00154270Y00129631D02*
Y00126270D01*
X00157631D01*
X00157512Y00126869D01*
X00156453Y00128453D01*
X00154869Y00129512D01*
X00154270Y00129631D01*
D02*
G37*
G36*
X00157631Y00123730D02*
X00154270D01*
Y00120369D01*
X00154869Y00120488D01*
X00156453Y00121547D01*
X00157512Y00123131D01*
X00157631Y00123730D01*
D02*
G37*
G36*
X00151730Y00129631D02*
X00151131Y00129512D01*
X00149547Y00128453D01*
X00148488Y00126869D01*
X00148369Y00126270D01*
X00151730D01*
Y00129631D01*
D02*
G37*
G36*
X00188850Y00165326D02*
X00186566Y00165025D01*
X00184437Y00164143D01*
X00182609Y00162741D01*
X00181207Y00160913D01*
X00180325Y00158784D01*
X00180025Y00156500D01*
X00180325Y00154216D01*
X00181207Y00152087D01*
X00182609Y00150259D01*
X00184437Y00148857D01*
X00186566Y00147975D01*
X00188850Y00147675D01*
X00191134Y00147975D01*
X00193263Y00148857D01*
X00195091Y00150259D01*
X00196493Y00152087D01*
X00197375Y00154216D01*
X00197675Y00156500D01*
X00197375Y00158784D01*
X00196493Y00160913D01*
X00195091Y00162741D01*
X00193263Y00164143D01*
X00191134Y00165025D01*
X00188850Y00165326D01*
D02*
G37*
G36*
X00223000Y00165250D02*
X00205500D01*
Y00147750D01*
X00223000D01*
Y00165250D01*
D02*
G37*
G36*
X00163450Y00165326D02*
X00161166Y00165025D01*
X00159037Y00164143D01*
X00157209Y00162741D01*
X00155807Y00160913D01*
X00154925Y00158784D01*
X00154625Y00156500D01*
X00154925Y00154216D01*
X00155807Y00152087D01*
X00157209Y00150259D01*
X00159037Y00148857D01*
X00161166Y00147975D01*
X00163450Y00147675D01*
X00165734Y00147975D01*
X00167863Y00148857D01*
X00169691Y00150259D01*
X00171093Y00152087D01*
X00171975Y00154216D01*
X00172276Y00156500D01*
X00171975Y00158784D01*
X00171093Y00160913D01*
X00169691Y00162741D01*
X00167863Y00164143D01*
X00165734Y00165025D01*
X00163450Y00165326D01*
D02*
G37*
G36*
X00112650D02*
X00110366Y00165025D01*
X00108237Y00164143D01*
X00106409Y00162741D01*
X00105007Y00160913D01*
X00104125Y00158784D01*
X00103825Y00156500D01*
X00104125Y00154216D01*
X00105007Y00152087D01*
X00106409Y00150259D01*
X00108237Y00148857D01*
X00110366Y00147975D01*
X00112650Y00147675D01*
X00114934Y00147975D01*
X00117063Y00148857D01*
X00118891Y00150259D01*
X00120293Y00152087D01*
X00121175Y00154216D01*
X00121475Y00156500D01*
X00121175Y00158784D01*
X00120293Y00160913D01*
X00118891Y00162741D01*
X00117063Y00164143D01*
X00114934Y00165025D01*
X00112650Y00165326D01*
D02*
G37*
G36*
X00138050D02*
X00135766Y00165025D01*
X00133637Y00164143D01*
X00131809Y00162741D01*
X00130407Y00160913D01*
X00129525Y00158784D01*
X00129225Y00156500D01*
X00129525Y00154216D01*
X00130407Y00152087D01*
X00131809Y00150259D01*
X00133637Y00148857D01*
X00135766Y00147975D01*
X00138050Y00147675D01*
X00140334Y00147975D01*
X00142463Y00148857D01*
X00144291Y00150259D01*
X00145693Y00152087D01*
X00146575Y00154216D01*
X00146875Y00156500D01*
X00146575Y00158784D01*
X00145693Y00160913D01*
X00144291Y00162741D01*
X00142463Y00164143D01*
X00140334Y00165025D01*
X00138050Y00165326D01*
D02*
G37*
G36*
X00151730Y00123730D02*
X00148369D01*
X00148488Y00123131D01*
X00149547Y00121547D01*
X00151131Y00120488D01*
X00151730Y00120369D01*
Y00123730D01*
D02*
G37*
G36*
X00124525Y00105541D02*
X00121164D01*
X00121284Y00104942D01*
X00122342Y00103358D01*
X00123927Y00102299D01*
X00124525Y00102180D01*
Y00105541D01*
D02*
G37*
G36*
X00130427D02*
X00127065D01*
Y00102180D01*
X00127664Y00102299D01*
X00129249Y00103358D01*
X00130308Y00104942D01*
X00130427Y00105541D01*
D02*
G37*
G36*
X00114007Y00104886D02*
X00112641Y00104614D01*
X00111483Y00103840D01*
X00110710Y00102683D01*
X00110438Y00101317D01*
X00110710Y00099951D01*
X00111483Y00098794D01*
X00112641Y00098020D01*
X00114007Y00097748D01*
X00115372Y00098020D01*
X00116530Y00098794D01*
X00117303Y00099951D01*
X00117575Y00101317D01*
X00117303Y00102683D01*
X00116530Y00103840D01*
X00115372Y00104614D01*
X00114007Y00104886D01*
D02*
G37*
G36*
X00140737Y00097886D02*
X00140138Y00097767D01*
X00138553Y00096708D01*
X00137495Y00095124D01*
X00137376Y00094525D01*
X00140737D01*
Y00097886D01*
D02*
G37*
G36*
X00143277D02*
Y00094525D01*
X00146638D01*
X00146519Y00095124D01*
X00145460Y00096708D01*
X00143876Y00097767D01*
X00143277Y00097886D01*
D02*
G37*
G36*
X00132507Y00115574D02*
X00131141Y00115302D01*
X00129983Y00114529D01*
X00129209Y00113371D01*
X00128938Y00112006D01*
X00128939Y00111999D01*
X00127796Y00111235D01*
X00127664Y00111323D01*
X00127065Y00111442D01*
Y00108081D01*
X00130943D01*
X00131616Y00108614D01*
X00132507Y00108437D01*
X00133872Y00108708D01*
X00135030Y00109482D01*
X00135803Y00110640D01*
X00136075Y00112006D01*
X00135803Y00113371D01*
X00135030Y00114529D01*
X00133872Y00115302D01*
X00132507Y00115574D01*
D02*
G37*
G36*
X00183000Y00118569D02*
X00181634Y00118297D01*
X00180477Y00117523D01*
X00179703Y00116366D01*
X00179431Y00115000D01*
X00179703Y00113634D01*
X00180477Y00112477D01*
X00181634Y00111703D01*
X00183000Y00111431D01*
X00184366Y00111703D01*
X00185523Y00112477D01*
X00186297Y00113634D01*
X00186569Y00115000D01*
X00186297Y00116366D01*
X00185523Y00117523D01*
X00184366Y00118297D01*
X00183000Y00118569D01*
D02*
G37*
G36*
X00112770Y00117279D02*
X00111404Y00117007D01*
X00110247Y00116233D01*
X00109473Y00115076D01*
X00109201Y00113710D01*
X00109473Y00112344D01*
X00110247Y00111187D01*
X00111404Y00110413D01*
X00112770Y00110141D01*
X00114136Y00110413D01*
X00115293Y00111187D01*
X00116067Y00112344D01*
X00116339Y00113710D01*
X00116067Y00115076D01*
X00115293Y00116233D01*
X00114136Y00117007D01*
X00112770Y00117279D01*
D02*
G37*
G36*
X00140000Y00109569D02*
X00138634Y00109297D01*
X00137477Y00108523D01*
X00136703Y00107366D01*
X00136431Y00106000D01*
X00136703Y00104634D01*
X00137477Y00103477D01*
X00138634Y00102703D01*
X00140000Y00102431D01*
X00141366Y00102703D01*
X00142523Y00103477D01*
X00143297Y00104634D01*
X00143569Y00106000D01*
X00143297Y00107366D01*
X00142523Y00108523D01*
X00141366Y00109297D01*
X00140000Y00109569D01*
D02*
G37*
G36*
X00124525Y00111442D02*
X00123927Y00111323D01*
X00122342Y00110265D01*
X00121284Y00108680D01*
X00121164Y00108081D01*
X00124525D01*
Y00111442D01*
D02*
G37*
%LPD*%
D20*
X00020000Y00000000D02*
X00265000D01*
Y00185000D01*
X00020000D02*
X00265000D01*
X00020000Y00000000D02*
Y00185000D01*
D21*
X00163450Y00029500D02*
D03*
X00061850D02*
D03*
D23*
X00142007Y00093255D02*
D03*
X00125795Y00106811D02*
D03*
X00153000Y00125000D02*
D03*
M02*
