G04 Layer_Color=8421504*
%FSAX44Y44*%
%MOMM*%
G71*
G01*
G75*
G04:AMPARAMS|DCode=10|XSize=1.27mm|YSize=1.27mm|CornerRadius=0.1588mm|HoleSize=0mm|Usage=FLASHONLY|Rotation=270.000|XOffset=0mm|YOffset=0mm|HoleType=Round|Shape=RoundedRectangle|*
%AMROUNDEDRECTD10*
21,1,1.2700,0.9525,0,0,270.0*
21,1,0.9525,1.2700,0,0,270.0*
1,1,0.3175,-0.4763,-0.4763*
1,1,0.3175,-0.4763,0.4763*
1,1,0.3175,0.4763,0.4763*
1,1,0.3175,0.4763,-0.4763*
%
%ADD10ROUNDEDRECTD10*%
%ADD11R,1.3000X0.7000*%
%ADD12R,1.7000X0.8000*%
%ADD13R,1.3000X0.9000*%
%ADD14R,0.7000X1.3000*%
%ADD15C,0.2900*%
%ADD16R,0.9000X1.3000*%
%ADD20C,0.1016*%
D10*
X00248000Y00127525D02*
D03*
Y00108475D02*
D03*
X00036000Y00107475D02*
D03*
Y00126525D02*
D03*
D11*
X00213000Y00109500D02*
D03*
Y00128500D02*
D03*
X00248000Y00075500D02*
D03*
Y00056500D02*
D03*
X00093000Y00077500D02*
D03*
Y00058500D02*
D03*
X00075000Y00122500D02*
D03*
Y00103500D02*
D03*
D12*
X00221000Y00057000D02*
D03*
Y00091000D02*
D03*
X00050000Y00085000D02*
D03*
Y00051000D02*
D03*
D13*
X00191000Y00083500D02*
D03*
Y00064500D02*
D03*
X00160000Y00097500D02*
D03*
Y00078500D02*
D03*
D14*
X00164500Y00126000D02*
D03*
X00183500D02*
D03*
X00113500Y00064000D02*
D03*
X00132500D02*
D03*
D15*
X00136000Y00103000D02*
D03*
X00131000D02*
D03*
X00126000D02*
D03*
X00121000D02*
D03*
X00136000Y00098000D02*
D03*
X00131000D02*
D03*
X00126000D02*
D03*
X00121000D02*
D03*
X00136000Y00093000D02*
D03*
X00131000D02*
D03*
X00126000D02*
D03*
X00121000D02*
D03*
X00136000Y00088000D02*
D03*
X00131000D02*
D03*
X00126000D02*
D03*
X00121000D02*
D03*
D16*
X00120500Y00126000D02*
D03*
X00139500D02*
D03*
D20*
X00020000Y00000000D02*
Y00185000D01*
X00265000D01*
Y00000000D02*
Y00185000D01*
X00020000Y00000000D02*
X00265000D01*
M02*
