G04 Layer_Physical_Order=4*
G04 Layer_Color=16711680*
%FSAX44Y44*%
%MOMM*%
G71*
G01*
G75*
%ADD18C,0.1524*%
%ADD19C,0.1270*%
%ADD20C,0.1016*%
%ADD21C,1.5000*%
%ADD22R,1.5000X1.5000*%
%ADD23C,0.4500*%
%ADD24C,0.4000*%
G36*
X00260250Y00006063D02*
X00259750Y00005000D01*
X00025649D01*
X00024751Y00005899D01*
X00025000Y00180000D01*
X00260250D01*
Y00006063D01*
D02*
G37*
%LPC*%
G36*
X00163450Y00038346D02*
X00161161Y00038044D01*
X00159027Y00037161D01*
X00157195Y00035755D01*
X00155789Y00033923D01*
X00154906Y00031789D01*
X00154604Y00029500D01*
X00154906Y00027211D01*
X00155789Y00025077D01*
X00157195Y00023245D01*
X00159027Y00021839D01*
X00161161Y00020956D01*
X00163450Y00020654D01*
X00165739Y00020956D01*
X00167873Y00021839D01*
X00169705Y00023245D01*
X00171111Y00025077D01*
X00171994Y00027211D01*
X00172296Y00029500D01*
X00171994Y00031789D01*
X00171111Y00033923D01*
X00169705Y00035755D01*
X00167873Y00037161D01*
X00165739Y00038044D01*
X00163450Y00038346D01*
D02*
G37*
G36*
X00188850D02*
X00186561Y00038044D01*
X00184427Y00037161D01*
X00182595Y00035755D01*
X00181189Y00033923D01*
X00180306Y00031789D01*
X00180004Y00029500D01*
X00180306Y00027211D01*
X00181189Y00025077D01*
X00182595Y00023245D01*
X00184427Y00021839D01*
X00186561Y00020956D01*
X00188850Y00020654D01*
X00191139Y00020956D01*
X00193273Y00021839D01*
X00195105Y00023245D01*
X00196511Y00025077D01*
X00197394Y00027211D01*
X00197696Y00029500D01*
X00197394Y00031789D01*
X00196511Y00033923D01*
X00195105Y00035755D01*
X00193273Y00037161D01*
X00191139Y00038044D01*
X00188850Y00038346D01*
D02*
G37*
G36*
X00223020Y00038270D02*
X00205480D01*
Y00020730D01*
X00223020D01*
Y00038270D01*
D02*
G37*
G36*
X00061850Y00038346D02*
X00059561Y00038044D01*
X00057427Y00037161D01*
X00055595Y00035755D01*
X00054189Y00033923D01*
X00053306Y00031789D01*
X00053004Y00029500D01*
X00053306Y00027211D01*
X00054189Y00025077D01*
X00055595Y00023245D01*
X00057427Y00021839D01*
X00059561Y00020956D01*
X00061850Y00020654D01*
X00064139Y00020956D01*
X00066273Y00021839D01*
X00068105Y00023245D01*
X00069511Y00025077D01*
X00070394Y00027211D01*
X00070696Y00029500D01*
X00070394Y00031789D01*
X00069511Y00033923D01*
X00068105Y00035755D01*
X00066273Y00037161D01*
X00064139Y00038044D01*
X00061850Y00038346D01*
D02*
G37*
G36*
X00112650D02*
X00110361Y00038044D01*
X00108227Y00037161D01*
X00106395Y00035755D01*
X00104989Y00033923D01*
X00104106Y00031789D01*
X00103804Y00029500D01*
X00104106Y00027211D01*
X00104989Y00025077D01*
X00106395Y00023245D01*
X00108227Y00021839D01*
X00110361Y00020956D01*
X00112650Y00020654D01*
X00114939Y00020956D01*
X00117073Y00021839D01*
X00118905Y00023245D01*
X00120311Y00025077D01*
X00121194Y00027211D01*
X00121496Y00029500D01*
X00121194Y00031789D01*
X00120311Y00033923D01*
X00118905Y00035755D01*
X00117073Y00037161D01*
X00114939Y00038044D01*
X00112650Y00038346D01*
D02*
G37*
G36*
X00138050D02*
X00135761Y00038044D01*
X00133627Y00037161D01*
X00131795Y00035755D01*
X00130389Y00033923D01*
X00129506Y00031789D01*
X00129204Y00029500D01*
X00129506Y00027211D01*
X00130389Y00025077D01*
X00131795Y00023245D01*
X00133627Y00021839D01*
X00135761Y00020956D01*
X00138050Y00020654D01*
X00140339Y00020956D01*
X00142473Y00021839D01*
X00144305Y00023245D01*
X00145711Y00025077D01*
X00146594Y00027211D01*
X00146896Y00029500D01*
X00146594Y00031789D01*
X00145711Y00033923D01*
X00144305Y00035755D01*
X00142473Y00037161D01*
X00140339Y00038044D01*
X00138050Y00038346D01*
D02*
G37*
G36*
X00125795Y00110400D02*
X00124422Y00110127D01*
X00123258Y00109349D01*
X00122480Y00108184D01*
X00122207Y00106811D01*
X00122480Y00105438D01*
X00123258Y00104273D01*
X00124422Y00103495D01*
X00125795Y00103222D01*
X00127169Y00103495D01*
X00128333Y00104273D01*
X00129111Y00105438D01*
X00129384Y00106811D01*
X00129111Y00108184D01*
X00128333Y00109349D01*
X00127169Y00110127D01*
X00125795Y00110400D01*
D02*
G37*
G36*
X00163450Y00165346D02*
X00161161Y00165044D01*
X00159027Y00164161D01*
X00157195Y00162755D01*
X00155789Y00160923D01*
X00154906Y00158789D01*
X00154604Y00156500D01*
X00154906Y00154211D01*
X00155789Y00152077D01*
X00157195Y00150245D01*
X00159027Y00148839D01*
X00161161Y00147956D01*
X00163450Y00147654D01*
X00165739Y00147956D01*
X00167873Y00148839D01*
X00169705Y00150245D01*
X00171111Y00152077D01*
X00171994Y00154211D01*
X00172296Y00156500D01*
X00171994Y00158789D01*
X00171111Y00160923D01*
X00169705Y00162755D01*
X00167873Y00164161D01*
X00165739Y00165044D01*
X00163450Y00165346D01*
D02*
G37*
G36*
X00188850D02*
X00186561Y00165044D01*
X00184427Y00164161D01*
X00182595Y00162755D01*
X00181189Y00160923D01*
X00180306Y00158789D01*
X00180004Y00156500D01*
X00180306Y00154211D01*
X00181189Y00152077D01*
X00182595Y00150245D01*
X00184427Y00148839D01*
X00186561Y00147956D01*
X00188850Y00147654D01*
X00191139Y00147956D01*
X00193273Y00148839D01*
X00195105Y00150245D01*
X00196511Y00152077D01*
X00197394Y00154211D01*
X00197696Y00156500D01*
X00197394Y00158789D01*
X00196511Y00160923D01*
X00195105Y00162755D01*
X00193273Y00164161D01*
X00191139Y00165044D01*
X00188850Y00165346D01*
D02*
G37*
G36*
X00223020Y00165270D02*
X00205480D01*
Y00147730D01*
X00223020D01*
Y00165270D01*
D02*
G37*
G36*
X00138050Y00165346D02*
X00135761Y00165044D01*
X00133627Y00164161D01*
X00131795Y00162755D01*
X00130389Y00160923D01*
X00129506Y00158789D01*
X00129204Y00156500D01*
X00129506Y00154211D01*
X00130389Y00152077D01*
X00131795Y00150245D01*
X00133627Y00148839D01*
X00135761Y00147956D01*
X00138050Y00147654D01*
X00140339Y00147956D01*
X00142473Y00148839D01*
X00144305Y00150245D01*
X00145711Y00152077D01*
X00146594Y00154211D01*
X00146896Y00156500D01*
X00146594Y00158789D01*
X00145711Y00160923D01*
X00144305Y00162755D01*
X00142473Y00164161D01*
X00140339Y00165044D01*
X00138050Y00165346D01*
D02*
G37*
G36*
X00153000Y00128589D02*
X00151627Y00128316D01*
X00150462Y00127538D01*
X00149684Y00126373D01*
X00149411Y00125000D01*
X00149684Y00123627D01*
X00150462Y00122462D01*
X00151627Y00121684D01*
X00153000Y00121411D01*
X00154373Y00121684D01*
X00155538Y00122462D01*
X00156316Y00123627D01*
X00156589Y00125000D01*
X00156316Y00126373D01*
X00155538Y00127538D01*
X00154373Y00128316D01*
X00153000Y00128589D01*
D02*
G37*
G36*
X00061850Y00165346D02*
X00059561Y00165044D01*
X00057427Y00164161D01*
X00055595Y00162755D01*
X00054189Y00160923D01*
X00053306Y00158789D01*
X00053004Y00156500D01*
X00053306Y00154211D01*
X00054189Y00152077D01*
X00055595Y00150245D01*
X00057427Y00148839D01*
X00059561Y00147956D01*
X00061850Y00147654D01*
X00064139Y00147956D01*
X00066273Y00148839D01*
X00068105Y00150245D01*
X00069511Y00152077D01*
X00070394Y00154211D01*
X00070696Y00156500D01*
X00070394Y00158789D01*
X00069511Y00160923D01*
X00068105Y00162755D01*
X00066273Y00164161D01*
X00064139Y00165044D01*
X00061850Y00165346D01*
D02*
G37*
G36*
X00112650D02*
X00110361Y00165044D01*
X00108227Y00164161D01*
X00106395Y00162755D01*
X00104989Y00160923D01*
X00104106Y00158789D01*
X00103804Y00156500D01*
X00104106Y00154211D01*
X00104989Y00152077D01*
X00106395Y00150245D01*
X00108227Y00148839D01*
X00110361Y00147956D01*
X00110708Y00147910D01*
Y00106350D01*
X00110856Y00105606D01*
X00111277Y00104976D01*
X00111552Y00104701D01*
X00111469Y00103855D01*
X00110935Y00103055D01*
X00109496Y00102698D01*
X00100104Y00112090D01*
X00100244Y00112793D01*
X00099971Y00114166D01*
X00099193Y00115330D01*
X00098028Y00116108D01*
X00096655Y00116381D01*
X00095282Y00116108D01*
X00094117Y00115330D01*
X00093339Y00114166D01*
X00093066Y00112793D01*
X00093339Y00111419D01*
X00094117Y00110255D01*
X00095282Y00109477D01*
X00096655Y00109204D01*
X00097357Y00109343D01*
X00110359Y00096342D01*
X00109833Y00095072D01*
X00055702D01*
X00055309Y00095465D01*
X00054637Y00095914D01*
X00053844Y00096072D01*
X00053844Y00096072D01*
X00052849D01*
X00052538Y00096538D01*
X00051373Y00097316D01*
X00050000Y00097589D01*
X00048712Y00097333D01*
X00048593Y00097337D01*
X00047442Y00098052D01*
Y00113946D01*
X00082549Y00149053D01*
X00082827Y00148839D01*
X00084961Y00147956D01*
X00087250Y00147654D01*
X00089539Y00147956D01*
X00091673Y00148839D01*
X00093505Y00150245D01*
X00094911Y00152077D01*
X00095794Y00154211D01*
X00096096Y00156500D01*
X00095794Y00158789D01*
X00094911Y00160923D01*
X00093505Y00162755D01*
X00091673Y00164161D01*
X00089539Y00165044D01*
X00087250Y00165346D01*
X00084961Y00165044D01*
X00082827Y00164161D01*
X00080995Y00162755D01*
X00079589Y00160923D01*
X00078706Y00158789D01*
X00078404Y00156500D01*
X00078706Y00154211D01*
X00079589Y00152077D01*
X00079803Y00151799D01*
X00044127Y00116123D01*
X00043706Y00115493D01*
X00043558Y00114750D01*
Y00092624D01*
X00043706Y00091881D01*
X00044127Y00091250D01*
X00058651Y00076726D01*
X00059282Y00076304D01*
X00060025Y00076157D01*
X00060025Y00076157D01*
X00127727D01*
X00128470Y00076304D01*
X00129101Y00076726D01*
X00132151Y00079776D01*
X00133150Y00079974D01*
X00134314Y00080752D01*
X00135092Y00081917D01*
X00135365Y00083290D01*
X00135092Y00084664D01*
X00134314Y00085828D01*
X00133150Y00086606D01*
X00131776Y00086879D01*
X00130403Y00086606D01*
X00129238Y00085828D01*
X00128546Y00084792D01*
X00128544D01*
X00127380Y00085570D01*
X00126006Y00085843D01*
X00124633Y00085570D01*
X00123468Y00084792D01*
X00122690Y00083627D01*
X00122417Y00082254D01*
X00122605Y00081311D01*
X00121840Y00080041D01*
X00060830D01*
X00051381Y00089489D01*
X00051739Y00090928D01*
X00052237Y00091261D01*
X00053379Y00091535D01*
X00054051Y00091086D01*
X00054844Y00090928D01*
X00054844Y00090928D01*
X00111151D01*
X00111462Y00090462D01*
X00112627Y00089684D01*
X00114000Y00089411D01*
X00115373Y00089684D01*
X00116538Y00090462D01*
X00117072Y00091261D01*
X00118511Y00091619D01*
X00122408Y00087722D01*
X00122408Y00087721D01*
X00123038Y00087300D01*
X00123781Y00087153D01*
X00127655D01*
X00128398Y00087300D01*
X00129028Y00087721D01*
X00130790Y00089483D01*
X00131280Y00089386D01*
X00132556Y00089640D01*
X00133638Y00090363D01*
X00133782Y00090579D01*
X00134173Y00090644D01*
X00135242Y00090478D01*
X00135457Y00090157D01*
X00142411Y00083202D01*
X00142271Y00082500D01*
X00142544Y00081127D01*
X00143322Y00079962D01*
X00144487Y00079184D01*
X00145761Y00078931D01*
X00146004Y00078550D01*
X00146337Y00077711D01*
X00143885Y00075259D01*
X00143436Y00074587D01*
X00143278Y00073794D01*
X00143278Y00073794D01*
Y00063282D01*
X00118960D01*
X00118960Y00063282D01*
X00118167Y00063124D01*
X00117495Y00062675D01*
X00091847Y00037027D01*
X00091673Y00037161D01*
X00089539Y00038044D01*
X00087250Y00038346D01*
X00084961Y00038044D01*
X00082827Y00037161D01*
X00080995Y00035755D01*
X00079589Y00033923D01*
X00078706Y00031789D01*
X00078404Y00029500D01*
X00078706Y00027211D01*
X00079589Y00025077D01*
X00080995Y00023245D01*
X00082827Y00021839D01*
X00084961Y00020956D01*
X00087250Y00020654D01*
X00089539Y00020956D01*
X00091673Y00021839D01*
X00093505Y00023245D01*
X00094911Y00025077D01*
X00095794Y00027211D01*
X00096096Y00029500D01*
X00095794Y00031789D01*
X00094911Y00033923D01*
X00094777Y00034097D01*
X00119818Y00059138D01*
X00145350D01*
X00146143Y00059296D01*
X00146815Y00059745D01*
X00147264Y00060417D01*
X00147422Y00061210D01*
Y00072936D01*
X00156988Y00082502D01*
X00177251D01*
X00177627Y00082127D01*
X00178257Y00081706D01*
X00178498Y00081658D01*
X00178962Y00080962D01*
X00180127Y00080184D01*
X00181500Y00079911D01*
X00182873Y00080184D01*
X00184038Y00080962D01*
X00184816Y00082127D01*
X00185089Y00083500D01*
X00184816Y00084873D01*
X00184038Y00086038D01*
X00183442Y00086436D01*
Y00111499D01*
X00184373Y00111684D01*
X00185538Y00112462D01*
X00186316Y00113627D01*
X00186589Y00115000D01*
X00186316Y00116373D01*
X00185538Y00117538D01*
X00184373Y00118316D01*
X00183000Y00118589D01*
X00181627Y00118316D01*
X00180462Y00117538D01*
X00179684Y00116373D01*
X00179411Y00115000D01*
X00179634Y00113881D01*
X00179558Y00113500D01*
Y00087259D01*
X00179388Y00087031D01*
X00178331Y00086332D01*
X00178056Y00086386D01*
X00158072D01*
Y00096056D01*
X00157914Y00096848D01*
X00157465Y00097521D01*
X00157465Y00097521D01*
X00141515Y00113470D01*
X00140843Y00113920D01*
X00140050Y00114077D01*
X00140050Y00114077D01*
X00135356D01*
X00135044Y00114543D01*
X00133880Y00115321D01*
X00132507Y00115594D01*
X00131133Y00115321D01*
X00129969Y00114543D01*
X00129191Y00113379D01*
X00128918Y00112006D01*
X00129191Y00110632D01*
X00129969Y00109468D01*
X00131133Y00108690D01*
X00132507Y00108417D01*
X00133880Y00108690D01*
X00135044Y00109468D01*
X00135356Y00109934D01*
X00137265D01*
X00137651Y00108664D01*
X00137462Y00108538D01*
X00136684Y00107373D01*
X00136411Y00106000D01*
X00136684Y00104627D01*
X00137462Y00103462D01*
X00138627Y00102684D01*
X00140000Y00102411D01*
X00141373Y00102684D01*
X00142538Y00103462D01*
X00143070Y00104259D01*
X00144510Y00104616D01*
X00153928Y00095197D01*
Y00085302D01*
X00150649Y00082023D01*
X00149810Y00082357D01*
X00149429Y00082599D01*
X00149176Y00083873D01*
X00148398Y00085038D01*
X00147233Y00085816D01*
X00145860Y00086089D01*
X00145158Y00085949D01*
X00142483Y00088624D01*
X00143108Y00089795D01*
X00143757Y00089666D01*
X00145130Y00089939D01*
X00146295Y00090717D01*
X00147073Y00091881D01*
X00147346Y00093255D01*
X00147073Y00094628D01*
X00146295Y00095792D01*
X00145130Y00096570D01*
X00143757Y00096844D01*
X00142384Y00096570D01*
X00141219Y00095792D01*
X00140441Y00094628D01*
X00140254Y00093684D01*
X00139244Y00093081D01*
X00138925Y00093021D01*
X00138675Y00093179D01*
X00138624Y00093436D01*
X00138203Y00094066D01*
X00134068Y00098201D01*
X00134084Y00098280D01*
X00133830Y00099556D01*
X00133108Y00100638D01*
X00132026Y00101360D01*
X00130750Y00101614D01*
X00129474Y00101360D01*
X00128392Y00100638D01*
X00127670Y00099556D01*
X00127424Y00098319D01*
X00127251Y00098201D01*
X00126234Y00097712D01*
X00117101Y00106845D01*
X00116471Y00107266D01*
X00115728Y00107414D01*
X00114592D01*
Y00147910D01*
X00114939Y00147956D01*
X00117073Y00148839D01*
X00118905Y00150245D01*
X00120311Y00152077D01*
X00121194Y00154211D01*
X00121496Y00156500D01*
X00121194Y00158789D01*
X00120311Y00160923D01*
X00118905Y00162755D01*
X00117073Y00164161D01*
X00114939Y00165044D01*
X00112650Y00165346D01*
D02*
G37*
%LPD*%
D18*
X00087250Y00029500D02*
X00118960Y00061210D01*
X00145350D01*
Y00073794D01*
X00156000Y00084444D01*
Y00096056D01*
X00140050Y00112006D02*
X00156000Y00096056D01*
X00132507Y00112006D02*
X00140050D01*
X00132507Y00110506D02*
Y00112006D01*
X00053844Y00094000D02*
X00054844Y00093000D01*
X00050000Y00094000D02*
X00053844D01*
X00087250Y00024000D02*
X00090000Y00026750D01*
X00054844Y00093000D02*
X00114000D01*
D19*
X00136830Y00091530D02*
X00145860Y00082500D01*
X00136830Y00091530D02*
Y00092692D01*
X00131243Y00098280D02*
X00136830Y00092692D01*
X00130750Y00098280D02*
X00131243D01*
X00156000Y00084444D02*
X00178056D01*
X00112650Y00106350D02*
Y00156500D01*
X00045500Y00114750D02*
X00087250Y00156500D01*
X00181500Y00113500D02*
X00183000Y00115000D01*
X00181500Y00083500D02*
Y00113500D01*
X00112650Y00162500D02*
X00115650Y00159500D01*
X00131776Y00082148D02*
Y00083290D01*
X00045500Y00092624D02*
Y00114750D01*
X00127727Y00078099D02*
X00131776Y00082148D01*
X00045500Y00092624D02*
X00060025Y00078099D01*
X00127727D01*
X00178056Y00084444D02*
X00179000Y00083500D01*
X00181500D01*
X00112650Y00106350D02*
X00113528Y00105472D01*
X00115728D01*
X00126000Y00093000D02*
Y00095200D01*
X00115728Y00105472D02*
X00126000Y00095200D01*
X00115721Y00097155D02*
X00123781Y00089095D01*
X00112292Y00097155D02*
X00115721D01*
X00096655Y00112793D02*
X00112292Y00097155D01*
X00123781Y00089095D02*
X00127655D01*
X00131280Y00092720D01*
D20*
X00020000Y00000000D02*
Y00185000D01*
X00265000D01*
Y00000000D02*
Y00185000D01*
X00020000Y00000000D02*
X00265000D01*
D21*
X00061850Y00029500D02*
D03*
X00087250D02*
D03*
X00112650D02*
D03*
X00138050D02*
D03*
X00188850D02*
D03*
X00163450D02*
D03*
X00061850Y00156500D02*
D03*
X00087250D02*
D03*
X00112650D02*
D03*
X00138050D02*
D03*
X00188850D02*
D03*
X00163450D02*
D03*
D22*
X00214250Y00029500D02*
D03*
Y00156500D02*
D03*
D23*
X00096655Y00112793D02*
D03*
X00145860Y00082500D02*
D03*
X00132507Y00112006D02*
D03*
X00050000Y00094000D02*
D03*
X00153000Y00125000D02*
D03*
X00183000Y00115000D02*
D03*
X00181500Y00083500D02*
D03*
X00143757Y00093255D02*
D03*
X00114000Y00093000D02*
D03*
X00126006Y00082254D02*
D03*
X00131776Y00083290D02*
D03*
X00125795Y00106811D02*
D03*
X00114007Y00101317D02*
D03*
X00140000Y00106000D02*
D03*
D24*
X00130750Y00098280D02*
D03*
X00125800Y00093000D02*
D03*
X00131280Y00092720D02*
D03*
M02*
