G04 Layer_Physical_Order=2*
G04 Layer_Color=16440176*
%FSAX44Y44*%
%MOMM*%
G71*
G01*
G75*
%ADD20C,0.1016*%
%ADD21C,1.5000*%
%ADD23C,0.4500*%
G36*
X00260000Y00005000D02*
X00025000D01*
Y00180000D01*
X00260000D01*
Y00005000D01*
D02*
G37*
%LPC*%
G36*
X00162180Y00039459D02*
X00160829Y00039282D01*
X00158387Y00038270D01*
X00156289Y00036661D01*
X00154680Y00034563D01*
X00153668Y00032121D01*
X00153491Y00030770D01*
X00162180D01*
Y00039459D01*
D02*
G37*
G36*
X00164720D02*
Y00030770D01*
X00173409D01*
X00173232Y00032121D01*
X00172220Y00034563D01*
X00170611Y00036661D01*
X00168513Y00038270D01*
X00166071Y00039282D01*
X00164720Y00039459D01*
D02*
G37*
G36*
X00060580D02*
X00059229Y00039282D01*
X00056787Y00038270D01*
X00054689Y00036661D01*
X00053080Y00034563D01*
X00052068Y00032121D01*
X00051891Y00030770D01*
X00060580D01*
Y00039459D01*
D02*
G37*
G36*
X00063120D02*
Y00030770D01*
X00071809D01*
X00071632Y00032121D01*
X00070620Y00034563D01*
X00069011Y00036661D01*
X00066913Y00038270D01*
X00064471Y00039282D01*
X00063120Y00039459D01*
D02*
G37*
G36*
X00145860Y00086089D02*
X00144487Y00085816D01*
X00143322Y00085038D01*
X00142544Y00083873D01*
X00142271Y00082500D01*
X00142544Y00081127D01*
X00143322Y00079962D01*
X00144487Y00079184D01*
X00145860Y00078911D01*
X00147233Y00079184D01*
X00148398Y00079962D01*
X00149176Y00081127D01*
X00149449Y00082500D01*
X00149176Y00083873D01*
X00148398Y00085038D01*
X00147233Y00085816D01*
X00145860Y00086089D01*
D02*
G37*
G36*
X00142487Y00091985D02*
X00139126D01*
X00139245Y00091386D01*
X00140304Y00089801D01*
X00141888Y00088743D01*
X00142487Y00088623D01*
Y00091985D01*
D02*
G37*
G36*
X00148388D02*
X00145027D01*
Y00088623D01*
X00145626Y00088743D01*
X00147210Y00089801D01*
X00148269Y00091386D01*
X00148388Y00091985D01*
D02*
G37*
G36*
X00181500Y00087089D02*
X00180127Y00086816D01*
X00178962Y00086038D01*
X00178184Y00084873D01*
X00177911Y00083500D01*
X00178184Y00082127D01*
X00178962Y00080962D01*
X00180127Y00080184D01*
X00181500Y00079911D01*
X00182873Y00080184D01*
X00184038Y00080962D01*
X00184816Y00082127D01*
X00185089Y00083500D01*
X00184816Y00084873D01*
X00184038Y00086038D01*
X00182873Y00086816D01*
X00181500Y00087089D01*
D02*
G37*
G36*
X00131776Y00086879D02*
X00130403Y00086606D01*
X00129238Y00085828D01*
X00128546Y00084792D01*
X00128544D01*
X00127380Y00085570D01*
X00126006Y00085843D01*
X00124633Y00085570D01*
X00123468Y00084792D01*
X00122690Y00083627D01*
X00122417Y00082254D01*
X00122690Y00080881D01*
X00123468Y00079716D01*
X00124633Y00078938D01*
X00126006Y00078665D01*
X00127380Y00078938D01*
X00128544Y00079716D01*
X00129236Y00080752D01*
X00129238D01*
X00130403Y00079974D01*
X00131776Y00079701D01*
X00133150Y00079974D01*
X00134314Y00080752D01*
X00135092Y00081917D01*
X00135365Y00083290D01*
X00135092Y00084664D01*
X00134314Y00085828D01*
X00133150Y00086606D01*
X00131776Y00086879D01*
D02*
G37*
G36*
X00162180Y00028230D02*
X00153491D01*
X00153668Y00026879D01*
X00154680Y00024437D01*
X00156289Y00022339D01*
X00158387Y00020730D01*
X00160829Y00019718D01*
X00162180Y00019541D01*
Y00028230D01*
D02*
G37*
G36*
X00173409D02*
X00164720D01*
Y00019541D01*
X00166071Y00019718D01*
X00168513Y00020730D01*
X00170611Y00022339D01*
X00172220Y00024437D01*
X00173232Y00026879D01*
X00173409Y00028230D01*
D02*
G37*
G36*
X00060580D02*
X00051891D01*
X00052068Y00026879D01*
X00053080Y00024437D01*
X00054689Y00022339D01*
X00056787Y00020730D01*
X00059229Y00019718D01*
X00060580Y00019541D01*
Y00028230D01*
D02*
G37*
G36*
X00071809D02*
X00063120D01*
Y00019541D01*
X00064471Y00019718D01*
X00066913Y00020730D01*
X00069011Y00022339D01*
X00070620Y00024437D01*
X00071632Y00026879D01*
X00071809Y00028230D01*
D02*
G37*
G36*
X00087250Y00038346D02*
X00084961Y00038044D01*
X00082827Y00037161D01*
X00080995Y00035755D01*
X00079589Y00033923D01*
X00078706Y00031789D01*
X00078404Y00029500D01*
X00078706Y00027211D01*
X00079589Y00025077D01*
X00080995Y00023245D01*
X00082827Y00021839D01*
X00084961Y00020956D01*
X00087250Y00020654D01*
X00089539Y00020956D01*
X00091673Y00021839D01*
X00093505Y00023245D01*
X00094911Y00025077D01*
X00095794Y00027211D01*
X00096096Y00029500D01*
X00095794Y00031789D01*
X00094911Y00033923D01*
X00093505Y00035755D01*
X00091673Y00037161D01*
X00089539Y00038044D01*
X00087250Y00038346D01*
D02*
G37*
G36*
X00188850D02*
X00186561Y00038044D01*
X00184427Y00037161D01*
X00182595Y00035755D01*
X00181189Y00033923D01*
X00180306Y00031789D01*
X00180004Y00029500D01*
X00180306Y00027211D01*
X00181189Y00025077D01*
X00182595Y00023245D01*
X00184427Y00021839D01*
X00186561Y00020956D01*
X00188850Y00020654D01*
X00191139Y00020956D01*
X00193273Y00021839D01*
X00195105Y00023245D01*
X00196511Y00025077D01*
X00197394Y00027211D01*
X00197696Y00029500D01*
X00197394Y00031789D01*
X00196511Y00033923D01*
X00195105Y00035755D01*
X00193273Y00037161D01*
X00191139Y00038044D01*
X00188850Y00038346D01*
D02*
G37*
G36*
X00223020Y00038270D02*
X00205480D01*
Y00020730D01*
X00223020D01*
Y00038270D01*
D02*
G37*
G36*
X00112650Y00038346D02*
X00110361Y00038044D01*
X00108227Y00037161D01*
X00106395Y00035755D01*
X00104989Y00033923D01*
X00104106Y00031789D01*
X00103804Y00029500D01*
X00104106Y00027211D01*
X00104989Y00025077D01*
X00106395Y00023245D01*
X00108227Y00021839D01*
X00110361Y00020956D01*
X00112650Y00020654D01*
X00114939Y00020956D01*
X00117073Y00021839D01*
X00118905Y00023245D01*
X00120311Y00025077D01*
X00121194Y00027211D01*
X00121496Y00029500D01*
X00121194Y00031789D01*
X00120311Y00033923D01*
X00118905Y00035755D01*
X00117073Y00037161D01*
X00114939Y00038044D01*
X00112650Y00038346D01*
D02*
G37*
G36*
X00138050D02*
X00135761Y00038044D01*
X00133627Y00037161D01*
X00131795Y00035755D01*
X00130389Y00033923D01*
X00129506Y00031789D01*
X00129204Y00029500D01*
X00129506Y00027211D01*
X00130389Y00025077D01*
X00131795Y00023245D01*
X00133627Y00021839D01*
X00135761Y00020956D01*
X00138050Y00020654D01*
X00140339Y00020956D01*
X00142473Y00021839D01*
X00144305Y00023245D01*
X00145711Y00025077D01*
X00146594Y00027211D01*
X00146896Y00029500D01*
X00146594Y00031789D01*
X00145711Y00033923D01*
X00144305Y00035755D01*
X00142473Y00037161D01*
X00140339Y00038044D01*
X00138050Y00038346D01*
D02*
G37*
G36*
X00061850Y00165346D02*
X00059561Y00165044D01*
X00057427Y00164161D01*
X00055595Y00162755D01*
X00054189Y00160923D01*
X00053306Y00158789D01*
X00053004Y00156500D01*
X00053306Y00154211D01*
X00054189Y00152077D01*
X00055595Y00150245D01*
X00057427Y00148839D01*
X00059561Y00147956D01*
X00061850Y00147654D01*
X00064139Y00147956D01*
X00066273Y00148839D01*
X00068105Y00150245D01*
X00069511Y00152077D01*
X00070394Y00154211D01*
X00070696Y00156500D01*
X00070394Y00158789D01*
X00069511Y00160923D01*
X00068105Y00162755D01*
X00066273Y00164161D01*
X00064139Y00165044D01*
X00061850Y00165346D01*
D02*
G37*
G36*
X00087250D02*
X00084961Y00165044D01*
X00082827Y00164161D01*
X00080995Y00162755D01*
X00079589Y00160923D01*
X00078706Y00158789D01*
X00078404Y00156500D01*
X00078706Y00154211D01*
X00079589Y00152077D01*
X00080995Y00150245D01*
X00082827Y00148839D01*
X00084961Y00147956D01*
X00087250Y00147654D01*
X00089539Y00147956D01*
X00091673Y00148839D01*
X00093505Y00150245D01*
X00094911Y00152077D01*
X00095794Y00154211D01*
X00096096Y00156500D01*
X00095794Y00158789D01*
X00094911Y00160923D01*
X00093505Y00162755D01*
X00091673Y00164161D01*
X00089539Y00165044D01*
X00087250Y00165346D01*
D02*
G37*
G36*
X00151730Y00129631D02*
X00151131Y00129512D01*
X00149547Y00128453D01*
X00148488Y00126869D01*
X00148369Y00126270D01*
X00151730D01*
Y00129631D01*
D02*
G37*
G36*
X00154270D02*
Y00126270D01*
X00157631D01*
X00157512Y00126869D01*
X00156453Y00128453D01*
X00154869Y00129512D01*
X00154270Y00129631D01*
D02*
G37*
G36*
X00112650Y00165346D02*
X00110361Y00165044D01*
X00108227Y00164161D01*
X00106395Y00162755D01*
X00104989Y00160923D01*
X00104106Y00158789D01*
X00103804Y00156500D01*
X00104106Y00154211D01*
X00104989Y00152077D01*
X00106395Y00150245D01*
X00108227Y00148839D01*
X00110361Y00147956D01*
X00112650Y00147654D01*
X00114939Y00147956D01*
X00117073Y00148839D01*
X00118905Y00150245D01*
X00120311Y00152077D01*
X00121194Y00154211D01*
X00121496Y00156500D01*
X00121194Y00158789D01*
X00120311Y00160923D01*
X00118905Y00162755D01*
X00117073Y00164161D01*
X00114939Y00165044D01*
X00112650Y00165346D01*
D02*
G37*
G36*
X00188850D02*
X00186561Y00165044D01*
X00184427Y00164161D01*
X00182595Y00162755D01*
X00181189Y00160923D01*
X00180306Y00158789D01*
X00180004Y00156500D01*
X00180306Y00154211D01*
X00181189Y00152077D01*
X00182595Y00150245D01*
X00184427Y00148839D01*
X00186561Y00147956D01*
X00188850Y00147654D01*
X00191139Y00147956D01*
X00193273Y00148839D01*
X00195105Y00150245D01*
X00196511Y00152077D01*
X00197394Y00154211D01*
X00197696Y00156500D01*
X00197394Y00158789D01*
X00196511Y00160923D01*
X00195105Y00162755D01*
X00193273Y00164161D01*
X00191139Y00165044D01*
X00188850Y00165346D01*
D02*
G37*
G36*
X00223020Y00165270D02*
X00205480D01*
Y00147730D01*
X00223020D01*
Y00165270D01*
D02*
G37*
G36*
X00138050Y00165346D02*
X00135761Y00165044D01*
X00133627Y00164161D01*
X00131795Y00162755D01*
X00130389Y00160923D01*
X00129506Y00158789D01*
X00129204Y00156500D01*
X00129506Y00154211D01*
X00130389Y00152077D01*
X00131795Y00150245D01*
X00133627Y00148839D01*
X00135761Y00147956D01*
X00138050Y00147654D01*
X00140339Y00147956D01*
X00142473Y00148839D01*
X00144305Y00150245D01*
X00145711Y00152077D01*
X00146594Y00154211D01*
X00146896Y00156500D01*
X00146594Y00158789D01*
X00145711Y00160923D01*
X00144305Y00162755D01*
X00142473Y00164161D01*
X00140339Y00165044D01*
X00138050Y00165346D01*
D02*
G37*
G36*
X00163450D02*
X00161161Y00165044D01*
X00159027Y00164161D01*
X00157195Y00162755D01*
X00155789Y00160923D01*
X00154906Y00158789D01*
X00154604Y00156500D01*
X00154906Y00154211D01*
X00155789Y00152077D01*
X00157195Y00150245D01*
X00159027Y00148839D01*
X00161161Y00147956D01*
X00163450Y00147654D01*
X00165739Y00147956D01*
X00167873Y00148839D01*
X00169705Y00150245D01*
X00171111Y00152077D01*
X00171994Y00154211D01*
X00172296Y00156500D01*
X00171994Y00158789D01*
X00171111Y00160923D01*
X00169705Y00162755D01*
X00167873Y00164161D01*
X00165739Y00165044D01*
X00163450Y00165346D01*
D02*
G37*
G36*
X00157631Y00123730D02*
X00154270D01*
Y00120369D01*
X00154869Y00120488D01*
X00156453Y00121547D01*
X00157512Y00123131D01*
X00157631Y00123730D01*
D02*
G37*
G36*
X00142487Y00097886D02*
X00141888Y00097767D01*
X00140304Y00096708D01*
X00139245Y00095124D01*
X00139126Y00094525D01*
X00142487D01*
Y00097886D01*
D02*
G37*
G36*
X00145027D02*
Y00094525D01*
X00148388D01*
X00148269Y00095124D01*
X00147210Y00096708D01*
X00145626Y00097767D01*
X00145027Y00097886D01*
D02*
G37*
G36*
X00114007Y00104906D02*
X00112633Y00104633D01*
X00111469Y00103855D01*
X00110691Y00102690D01*
X00110418Y00101317D01*
X00110691Y00099944D01*
X00111469Y00098779D01*
X00111779Y00098572D01*
X00111816Y00098474D01*
X00111813Y00095838D01*
X00111779Y00095750D01*
X00111462Y00095538D01*
X00110684Y00094373D01*
X00110411Y00093000D01*
X00110684Y00091627D01*
X00111462Y00090462D01*
X00112627Y00089684D01*
X00114000Y00089411D01*
X00115373Y00089684D01*
X00116538Y00090462D01*
X00117316Y00091627D01*
X00117589Y00093000D01*
X00117316Y00094373D01*
X00116538Y00095538D01*
X00116227Y00095745D01*
X00116191Y00095843D01*
X00116194Y00098479D01*
X00116227Y00098567D01*
X00116544Y00098779D01*
X00117322Y00099944D01*
X00117596Y00101317D01*
X00117322Y00102690D01*
X00116544Y00103855D01*
X00115380Y00104633D01*
X00114007Y00104906D01*
D02*
G37*
G36*
X00050000Y00097589D02*
X00048627Y00097316D01*
X00047462Y00096538D01*
X00046684Y00095373D01*
X00046411Y00094000D01*
X00046684Y00092627D01*
X00047462Y00091462D01*
X00048627Y00090684D01*
X00050000Y00090411D01*
X00051373Y00090684D01*
X00052538Y00091462D01*
X00053316Y00092627D01*
X00053589Y00094000D01*
X00053316Y00095373D01*
X00052538Y00096538D01*
X00051373Y00097316D01*
X00050000Y00097589D01*
D02*
G37*
G36*
X00132507Y00115594D02*
X00131133Y00115321D01*
X00129969Y00114543D01*
X00129191Y00113379D01*
X00129187Y00113361D01*
X00128061Y00111854D01*
X00127065Y00111678D01*
Y00106811D01*
X00125795D01*
Y00105541D01*
X00121164D01*
X00121284Y00104942D01*
X00122342Y00103358D01*
X00123927Y00102299D01*
X00125795Y00101927D01*
X00126261Y00102020D01*
X00127789Y00099734D01*
X00127670Y00099556D01*
X00127416Y00098280D01*
X00125857Y00096403D01*
X00125425Y00096259D01*
X00124524Y00096080D01*
X00123442Y00095357D01*
X00122720Y00094276D01*
X00122466Y00093000D01*
X00122720Y00091724D01*
X00123442Y00090642D01*
X00124524Y00089920D01*
X00125800Y00089666D01*
X00127076Y00089920D01*
X00128923Y00090363D01*
X00130004Y00089640D01*
X00131280Y00089386D01*
X00132556Y00089640D01*
X00133638Y00090363D01*
X00134360Y00091444D01*
X00134614Y00092720D01*
X00134360Y00093996D01*
X00133638Y00095077D01*
X00133830Y00097004D01*
X00134084Y00098280D01*
X00133830Y00099556D01*
X00133108Y00100638D01*
X00132026Y00101360D01*
X00130888Y00101587D01*
X00130758Y00101727D01*
X00130525Y00102110D01*
X00129671Y00103989D01*
X00130308Y00104942D01*
X00130567Y00106246D01*
X00132461Y00108377D01*
X00132506Y00108416D01*
X00132507Y00108417D01*
X00132933Y00108501D01*
X00133880Y00108690D01*
X00133901Y00108696D01*
X00134678Y00108912D01*
X00135028Y00108903D01*
X00136594Y00107079D01*
X00136607Y00106987D01*
X00136411Y00106000D01*
X00136684Y00104627D01*
X00137462Y00103462D01*
X00138627Y00102684D01*
X00140000Y00102411D01*
X00141373Y00102684D01*
X00142538Y00103462D01*
X00143316Y00104627D01*
X00143589Y00106000D01*
X00143316Y00107373D01*
X00142538Y00108538D01*
X00141373Y00109316D01*
X00140000Y00109589D01*
X00138627Y00109316D01*
X00138606Y00109310D01*
X00137828Y00109093D01*
X00137478Y00109103D01*
X00135912Y00110927D01*
X00135899Y00111019D01*
X00136095Y00112006D01*
X00135822Y00113379D01*
X00135044Y00114543D01*
X00133880Y00115321D01*
X00132507Y00115594D01*
D02*
G37*
G36*
X00183000Y00118589D02*
X00181627Y00118316D01*
X00180462Y00117538D01*
X00179684Y00116373D01*
X00179411Y00115000D01*
X00179684Y00113627D01*
X00180462Y00112462D01*
X00181627Y00111684D01*
X00183000Y00111411D01*
X00184373Y00111684D01*
X00185538Y00112462D01*
X00186316Y00113627D01*
X00186589Y00115000D01*
X00186316Y00116373D01*
X00185538Y00117538D01*
X00184373Y00118316D01*
X00183000Y00118589D01*
D02*
G37*
G36*
X00151730Y00123730D02*
X00148369D01*
X00148488Y00123131D01*
X00149547Y00121547D01*
X00151131Y00120488D01*
X00151730Y00120369D01*
Y00123730D01*
D02*
G37*
G36*
X00124525Y00111442D02*
X00123927Y00111323D01*
X00122342Y00110265D01*
X00121284Y00108680D01*
X00121164Y00108081D01*
X00124525D01*
Y00111442D01*
D02*
G37*
G36*
X00096655Y00116381D02*
X00095282Y00116108D01*
X00094117Y00115330D01*
X00093339Y00114166D01*
X00093066Y00112793D01*
X00093339Y00111419D01*
X00094117Y00110255D01*
X00095282Y00109477D01*
X00096655Y00109204D01*
X00098028Y00109477D01*
X00099193Y00110255D01*
X00099971Y00111419D01*
X00100244Y00112793D01*
X00099971Y00114166D01*
X00099193Y00115330D01*
X00098028Y00116108D01*
X00096655Y00116381D01*
D02*
G37*
%LPD*%
D20*
X00020000Y00000000D02*
Y00185000D01*
X00265000D01*
Y00000000D02*
Y00185000D01*
X00020000Y00000000D02*
X00265000D01*
D21*
X00061850Y00029500D02*
D03*
X00163450D02*
D03*
D23*
X00153000Y00125000D02*
D03*
X00143757Y00093255D02*
D03*
X00125795Y00106811D02*
D03*
M02*
