G04 Layer_Color=8388736*
%FSAX44Y44*%
%MOMM*%
G71*
G01*
G75*
%ADD20C,0.1016*%
G04:AMPARAMS|DCode=27|XSize=1.4732mm|YSize=1.4732mm|CornerRadius=0.2604mm|HoleSize=0mm|Usage=FLASHONLY|Rotation=270.000|XOffset=0mm|YOffset=0mm|HoleType=Round|Shape=RoundedRectangle|*
%AMROUNDEDRECTD27*
21,1,1.4732,0.9525,0,0,270.0*
21,1,0.9525,1.4732,0,0,270.0*
1,1,0.5207,-0.4763,-0.4763*
1,1,0.5207,-0.4763,0.4763*
1,1,0.5207,0.4763,0.4763*
1,1,0.5207,0.4763,-0.4763*
%
%ADD27ROUNDEDRECTD27*%
%ADD28R,1.5032X0.9032*%
%ADD29R,1.9032X1.0032*%
%ADD30R,1.5032X1.1032*%
%ADD31R,0.9032X1.5032*%
%ADD32C,0.4932*%
%ADD33R,1.1032X1.5032*%
%ADD34C,1.7032*%
%ADD35R,1.7032X1.7032*%
D20*
X00020000Y00000000D02*
Y00185000D01*
X00265000D01*
Y00000000D02*
Y00185000D01*
X00020000Y00000000D02*
X00265000D01*
D27*
X00248000Y00127525D02*
D03*
Y00108475D02*
D03*
X00036000Y00107475D02*
D03*
Y00126525D02*
D03*
D28*
X00213000Y00109500D02*
D03*
Y00128500D02*
D03*
X00248000Y00075500D02*
D03*
Y00056500D02*
D03*
X00093000Y00077500D02*
D03*
Y00058500D02*
D03*
X00075000Y00122500D02*
D03*
Y00103500D02*
D03*
D29*
X00221000Y00057000D02*
D03*
Y00091000D02*
D03*
X00050000Y00085000D02*
D03*
Y00051000D02*
D03*
D30*
X00191000Y00083500D02*
D03*
Y00064500D02*
D03*
X00160000Y00097500D02*
D03*
Y00078500D02*
D03*
D31*
X00164500Y00126000D02*
D03*
X00183500D02*
D03*
X00113500Y00064000D02*
D03*
X00132500D02*
D03*
D32*
X00136000Y00103000D02*
D03*
X00131000D02*
D03*
X00126000D02*
D03*
X00121000D02*
D03*
X00136000Y00098000D02*
D03*
X00131000D02*
D03*
X00126000D02*
D03*
X00121000D02*
D03*
X00136000Y00093000D02*
D03*
X00131000D02*
D03*
X00126000D02*
D03*
X00121000D02*
D03*
X00136000Y00088000D02*
D03*
X00131000D02*
D03*
X00126000D02*
D03*
X00121000D02*
D03*
D33*
X00120500Y00126000D02*
D03*
X00139500D02*
D03*
D34*
X00061850Y00029500D02*
D03*
X00087250D02*
D03*
X00112650D02*
D03*
X00138050D02*
D03*
X00188850D02*
D03*
X00163450D02*
D03*
X00061850Y00156500D02*
D03*
X00087250D02*
D03*
X00112650D02*
D03*
X00138050D02*
D03*
X00188850D02*
D03*
X00163450D02*
D03*
D35*
X00214250Y00029500D02*
D03*
Y00156500D02*
D03*
M02*
