G04 Layer_Physical_Order=1*
G04 Layer_Color=255*
%FSAX44Y44*%
%MOMM*%
G71*
G01*
G75*
%ADD10R,1.7000X0.8000*%
G04:AMPARAMS|DCode=11|XSize=1.27mm|YSize=1.27mm|CornerRadius=0.1588mm|HoleSize=0mm|Usage=FLASHONLY|Rotation=270.000|XOffset=0mm|YOffset=0mm|HoleType=Round|Shape=RoundedRectangle|*
%AMROUNDEDRECTD11*
21,1,1.2700,0.9525,0,0,270.0*
21,1,0.9525,1.2700,0,0,270.0*
1,1,0.3175,-0.4763,-0.4763*
1,1,0.3175,-0.4763,0.4763*
1,1,0.3175,0.4763,0.4763*
1,1,0.3175,0.4763,-0.4763*
%
%ADD11ROUNDEDRECTD11*%
%ADD12R,1.3000X0.7000*%
%ADD13R,0.9000X1.3000*%
%ADD14R,0.7000X1.3000*%
%ADD15C,0.1500*%
%ADD16R,1.3000X0.9000*%
%ADD17C,0.1000*%
%ADD18C,0.2000*%
%ADD19C,0.1500*%
%ADD20C,0.1016*%
%ADD21C,1.5000*%
%ADD22R,1.5000X1.5000*%
%ADD23C,0.4500*%
G36*
X00260000Y00005250D02*
X00259500Y00004750D01*
X00026148D01*
X00025251Y00005649D01*
X00025750Y00180000D01*
X00260000D01*
Y00005250D01*
D02*
G37*
%LPC*%
G36*
X00061040Y00057540D02*
X00051270D01*
Y00052270D01*
X00061040D01*
Y00057540D01*
D02*
G37*
G36*
X00189730Y00063230D02*
X00181960D01*
Y00057460D01*
X00189730D01*
Y00063230D01*
D02*
G37*
G36*
X00200040D02*
X00192270D01*
Y00057460D01*
X00200040D01*
Y00063230D01*
D02*
G37*
G36*
X00061040Y00049730D02*
X00051270D01*
Y00044460D01*
X00061040D01*
Y00049730D01*
D02*
G37*
G36*
X00230750Y00062250D02*
X00211250D01*
Y00051750D01*
X00230750D01*
Y00054716D01*
X00240250D01*
Y00051750D01*
X00255750D01*
Y00061250D01*
X00240250D01*
Y00058284D01*
X00230750D01*
Y00062250D01*
D02*
G37*
G36*
X00048730Y00057540D02*
X00038960D01*
Y00052270D01*
X00048730D01*
Y00057540D01*
D02*
G37*
G36*
X00169040Y00077230D02*
X00161270D01*
Y00071460D01*
X00169040D01*
Y00077230D01*
D02*
G37*
G36*
X00091730Y00083540D02*
X00083960D01*
Y00078770D01*
X00091730D01*
Y00083540D01*
D02*
G37*
G36*
X00050000Y00097569D02*
X00048634Y00097297D01*
X00047477Y00096523D01*
X00046703Y00095366D01*
X00046431Y00094000D01*
X00046703Y00092634D01*
X00047448Y00091520D01*
X00047397Y00091260D01*
X00047027Y00090250D01*
X00040250D01*
Y00079750D01*
X00059750D01*
Y00090250D01*
X00052973D01*
X00052603Y00091260D01*
X00052552Y00091520D01*
X00053297Y00092634D01*
X00053569Y00094000D01*
X00053297Y00095366D01*
X00052523Y00096523D01*
X00051366Y00097297D01*
X00050000Y00097569D01*
D02*
G37*
G36*
X00189730Y00071540D02*
X00181960D01*
Y00065770D01*
X00189730D01*
Y00071540D01*
D02*
G37*
G36*
X00200040D02*
X00192270D01*
Y00065770D01*
X00200040D01*
Y00071540D01*
D02*
G37*
G36*
X00091730Y00076230D02*
X00083960D01*
Y00071460D01*
X00091730D01*
Y00076230D01*
D02*
G37*
G36*
X00173409Y00028230D02*
X00164720D01*
Y00019541D01*
X00166071Y00019718D01*
X00168513Y00020730D01*
X00170611Y00022339D01*
X00172220Y00024437D01*
X00173232Y00026879D01*
X00173409Y00028230D01*
D02*
G37*
G36*
X00087250Y00038326D02*
X00084966Y00038025D01*
X00082837Y00037143D01*
X00081009Y00035741D01*
X00079607Y00033913D01*
X00078725Y00031784D01*
X00078425Y00029500D01*
X00078725Y00027216D01*
X00079607Y00025087D01*
X00081009Y00023259D01*
X00082837Y00021857D01*
X00084966Y00020975D01*
X00087250Y00020675D01*
X00089534Y00020975D01*
X00091663Y00021857D01*
X00093491Y00023259D01*
X00094893Y00025087D01*
X00095775Y00027216D01*
X00096075Y00029500D01*
X00095775Y00031784D01*
X00094893Y00033913D01*
X00093491Y00035741D01*
X00091663Y00037143D01*
X00089534Y00038025D01*
X00087250Y00038326D01*
D02*
G37*
G36*
X00188850D02*
X00186566Y00038025D01*
X00184437Y00037143D01*
X00182609Y00035741D01*
X00181207Y00033913D01*
X00180325Y00031784D01*
X00180025Y00029500D01*
X00180325Y00027216D01*
X00181207Y00025087D01*
X00182609Y00023259D01*
X00184437Y00021857D01*
X00186566Y00020975D01*
X00188850Y00020675D01*
X00191134Y00020975D01*
X00193263Y00021857D01*
X00195091Y00023259D01*
X00196493Y00025087D01*
X00197375Y00027216D01*
X00197675Y00029500D01*
X00197375Y00031784D01*
X00196493Y00033913D01*
X00195091Y00035741D01*
X00193263Y00037143D01*
X00191134Y00038025D01*
X00188850Y00038326D01*
D02*
G37*
G36*
X00060580Y00028230D02*
X00051891D01*
X00052068Y00026879D01*
X00053080Y00024437D01*
X00054689Y00022339D01*
X00056787Y00020730D01*
X00059229Y00019718D01*
X00060580Y00019541D01*
Y00028230D01*
D02*
G37*
G36*
X00071809D02*
X00063120D01*
Y00019541D01*
X00064471Y00019718D01*
X00066913Y00020730D01*
X00069011Y00022339D01*
X00070620Y00024437D01*
X00071632Y00026879D01*
X00071809Y00028230D01*
D02*
G37*
G36*
X00162180D02*
X00153491D01*
X00153668Y00026879D01*
X00154680Y00024437D01*
X00156289Y00022339D01*
X00158387Y00020730D01*
X00160829Y00019718D01*
X00162180Y00019541D01*
Y00028230D01*
D02*
G37*
G36*
Y00039459D02*
X00160829Y00039282D01*
X00158387Y00038270D01*
X00156289Y00036661D01*
X00154680Y00034563D01*
X00153668Y00032121D01*
X00153491Y00030770D01*
X00162180D01*
Y00039459D01*
D02*
G37*
G36*
X00164720D02*
Y00030770D01*
X00173409D01*
X00173232Y00032121D01*
X00172220Y00034563D01*
X00170611Y00036661D01*
X00168513Y00038270D01*
X00166071Y00039282D01*
X00164720Y00039459D01*
D02*
G37*
G36*
X00048730Y00049730D02*
X00038960D01*
Y00044460D01*
X00048730D01*
Y00049730D01*
D02*
G37*
G36*
X00223000Y00038250D02*
X00205500D01*
Y00020750D01*
X00223000D01*
Y00038250D01*
D02*
G37*
G36*
X00060580Y00039459D02*
X00059229Y00039282D01*
X00056787Y00038270D01*
X00054689Y00036661D01*
X00053080Y00034563D01*
X00052068Y00032121D01*
X00051891Y00030770D01*
X00060580D01*
Y00039459D01*
D02*
G37*
G36*
X00063120D02*
Y00030770D01*
X00071809D01*
X00071632Y00032121D01*
X00070620Y00034563D01*
X00069011Y00036661D01*
X00066913Y00038270D01*
X00064471Y00039282D01*
X00063120Y00039459D01*
D02*
G37*
G36*
X00161270Y00085540D02*
Y00079770D01*
X00169040D01*
Y00085540D01*
X00161270D01*
D02*
G37*
G36*
X00040763Y00134181D02*
X00031237D01*
X00030130Y00133960D01*
X00029192Y00133333D01*
X00028565Y00132395D01*
X00028344Y00131287D01*
Y00121763D01*
X00028565Y00120655D01*
X00029192Y00119717D01*
X00030130Y00119090D01*
X00031237Y00118869D01*
X00040763D01*
X00041870Y00119090D01*
X00042808Y00119717D01*
X00043435Y00120655D01*
X00043447Y00120716D01*
X00067250D01*
Y00117750D01*
X00082750D01*
Y00127250D01*
X00067250D01*
Y00124284D01*
X00043656D01*
Y00131287D01*
X00043435Y00132395D01*
X00042808Y00133333D01*
X00041870Y00133960D01*
X00040763Y00134181D01*
D02*
G37*
G36*
X00252763Y00135181D02*
X00243237D01*
X00242130Y00134960D01*
X00241192Y00134333D01*
X00240565Y00133395D01*
X00240344Y00132288D01*
Y00129309D01*
X00231025D01*
X00230342Y00129173D01*
X00229763Y00128787D01*
X00215227Y00114250D01*
X00205250D01*
Y00104750D01*
X00220750D01*
Y00114250D01*
X00220750Y00114250D01*
X00220750D01*
X00221308Y00115284D01*
X00231764Y00125741D01*
X00240344D01*
Y00122762D01*
X00240565Y00121655D01*
X00241192Y00120717D01*
X00242130Y00120090D01*
X00243237Y00119869D01*
X00252763D01*
X00253870Y00120090D01*
X00254808Y00120717D01*
X00255435Y00121655D01*
X00255656Y00122762D01*
Y00132288D01*
X00255435Y00133395D01*
X00254808Y00134333D01*
X00253870Y00134960D01*
X00252763Y00135181D01*
D02*
G37*
G36*
X00163450Y00165326D02*
X00161166Y00165025D01*
X00159037Y00164143D01*
X00157209Y00162741D01*
X00155807Y00160913D01*
X00154925Y00158784D01*
X00154625Y00156500D01*
X00154925Y00154216D01*
X00155807Y00152087D01*
X00157209Y00150259D01*
X00159037Y00148857D01*
X00161166Y00147975D01*
X00163450Y00147675D01*
X00165734Y00147975D01*
X00167863Y00148857D01*
X00169691Y00150259D01*
X00171093Y00152087D01*
X00171975Y00154216D01*
X00172276Y00156500D01*
X00171975Y00158784D01*
X00171093Y00160913D01*
X00169691Y00162741D01*
X00167863Y00164143D01*
X00165734Y00165025D01*
X00163450Y00165326D01*
D02*
G37*
G36*
X00246730Y00117446D02*
X00243237D01*
X00241627Y00117126D01*
X00240262Y00116213D01*
X00239349Y00114848D01*
X00239029Y00113237D01*
Y00109745D01*
X00246730D01*
Y00117446D01*
D02*
G37*
G36*
X00252763D02*
X00249270D01*
Y00109745D01*
X00256971D01*
Y00113237D01*
X00256651Y00114848D01*
X00255738Y00116213D01*
X00254373Y00117126D01*
X00252763Y00117446D01*
D02*
G37*
G36*
X00061850Y00165326D02*
X00059566Y00165025D01*
X00057437Y00164143D01*
X00055609Y00162741D01*
X00054207Y00160913D01*
X00053325Y00158784D01*
X00053025Y00156500D01*
X00053325Y00154216D01*
X00054207Y00152087D01*
X00055609Y00150259D01*
X00057437Y00148857D01*
X00059566Y00147975D01*
X00061850Y00147675D01*
X00064134Y00147975D01*
X00066263Y00148857D01*
X00068091Y00150259D01*
X00069493Y00152087D01*
X00070375Y00154216D01*
X00070676Y00156500D01*
X00070375Y00158784D01*
X00069493Y00160913D01*
X00068091Y00162741D01*
X00066263Y00164143D01*
X00064134Y00165025D01*
X00061850Y00165326D01*
D02*
G37*
G36*
X00223000Y00165250D02*
X00205500D01*
Y00147750D01*
X00210706D01*
Y00135698D01*
X00209533Y00135212D01*
X00208372Y00136372D01*
X00207628Y00136869D01*
X00206750Y00137044D01*
X00173250D01*
X00172372Y00136869D01*
X00171628Y00136372D01*
X00169006Y00133750D01*
X00162994D01*
X00160372Y00136372D01*
X00159628Y00136869D01*
X00158750Y00137044D01*
X00129250D01*
X00128372Y00136869D01*
X00127628Y00136372D01*
X00125006Y00133750D01*
X00114750D01*
Y00119760D01*
X00114427Y00119494D01*
X00100210D01*
X00099527Y00119359D01*
X00098948Y00118972D01*
X00083923Y00103947D01*
X00082750Y00104433D01*
Y00108250D01*
X00067250D01*
Y00098750D01*
X00077227D01*
X00079238Y00096738D01*
X00079817Y00096351D01*
X00080500Y00096216D01*
X00081183Y00096351D01*
X00081762Y00096738D01*
X00085079Y00100055D01*
X00100949Y00115926D01*
X00108630D01*
X00109389Y00114656D01*
X00109201Y00113710D01*
X00109473Y00112344D01*
X00110247Y00111187D01*
X00110986Y00110693D01*
Y00106476D01*
X00108745Y00104235D01*
X00108358Y00103657D01*
X00108222Y00102974D01*
Y00099660D01*
X00108358Y00098977D01*
X00108745Y00098398D01*
X00110746Y00096397D01*
X00110982Y00095028D01*
X00110209Y00093870D01*
X00109937Y00092505D01*
X00110209Y00091139D01*
X00110982Y00089981D01*
X00111493Y00089640D01*
X00111733Y00088259D01*
X00111081Y00087474D01*
X00106387D01*
X00105893Y00088213D01*
X00104736Y00088987D01*
X00103370Y00089259D01*
X00102004Y00088987D01*
X00100847Y00088213D01*
X00100073Y00087056D01*
X00099801Y00085690D01*
X00099977Y00084810D01*
X00099186Y00083540D01*
X00094270D01*
Y00077500D01*
Y00071460D01*
X00100277D01*
X00100763Y00070287D01*
X00093727Y00063250D01*
X00085250D01*
Y00053750D01*
X00091216D01*
Y00049150D01*
X00091351Y00048467D01*
X00091738Y00047888D01*
X00105314Y00034313D01*
X00105007Y00033913D01*
X00104125Y00031784D01*
X00103825Y00029500D01*
X00104125Y00027216D01*
X00105007Y00025087D01*
X00106409Y00023259D01*
X00108237Y00021857D01*
X00110366Y00020975D01*
X00112650Y00020675D01*
X00114934Y00020975D01*
X00117063Y00021857D01*
X00118891Y00023259D01*
X00120293Y00025087D01*
X00121175Y00027216D01*
X00121475Y00029500D01*
X00121175Y00031784D01*
X00120293Y00033913D01*
X00118891Y00035741D01*
X00117063Y00037143D01*
X00114934Y00038025D01*
X00112650Y00038326D01*
X00110366Y00038025D01*
X00108237Y00037143D01*
X00107837Y00036836D01*
X00094784Y00049889D01*
Y00053750D01*
X00100750D01*
Y00063250D01*
X00100433D01*
X00099947Y00064423D01*
X00107471Y00071948D01*
X00107702Y00071967D01*
X00108750Y00071130D01*
X00108750Y00070612D01*
Y00056250D01*
X00111716D01*
Y00054050D01*
X00111852Y00053367D01*
X00112238Y00052788D01*
X00130714Y00034313D01*
X00130407Y00033913D01*
X00129525Y00031784D01*
X00129225Y00029500D01*
X00129525Y00027216D01*
X00130407Y00025087D01*
X00131809Y00023259D01*
X00133637Y00021857D01*
X00135766Y00020975D01*
X00138050Y00020675D01*
X00140334Y00020975D01*
X00142463Y00021857D01*
X00144291Y00023259D01*
X00145693Y00025087D01*
X00146575Y00027216D01*
X00146875Y00029500D01*
X00146575Y00031784D01*
X00145693Y00033913D01*
X00144291Y00035741D01*
X00142463Y00037143D01*
X00140334Y00038025D01*
X00138050Y00038326D01*
X00135766Y00038025D01*
X00133637Y00037143D01*
X00133237Y00036836D01*
X00115284Y00054789D01*
Y00056250D01*
X00118250D01*
Y00062730D01*
X00118262Y00062738D01*
X00126480Y00070957D01*
X00127750Y00070767D01*
Y00056250D01*
X00137250D01*
Y00061706D01*
X00139750D01*
X00140628Y00061880D01*
X00141372Y00062378D01*
X00149379Y00070385D01*
X00149846Y00071083D01*
X00150466Y00071293D01*
X00151066Y00071460D01*
X00151237Y00071460D01*
X00158730D01*
Y00078500D01*
Y00085540D01*
X00151321D01*
X00150960Y00085540D01*
X00150051Y00086412D01*
Y00090536D01*
X00149876Y00091414D01*
X00149379Y00092158D01*
X00148837Y00092700D01*
Y00095706D01*
X00152250D01*
Y00091750D01*
X00167750D01*
Y00095716D01*
X00182000D01*
X00182683Y00095851D01*
X00183262Y00096238D01*
X00210773Y00123750D01*
X00220750D01*
Y00133250D01*
X00215294D01*
Y00147750D01*
X00223000D01*
Y00165250D01*
D02*
G37*
G36*
X00087250Y00165326D02*
X00084966Y00165025D01*
X00082837Y00164143D01*
X00081009Y00162741D01*
X00079607Y00160913D01*
X00078725Y00158784D01*
X00078425Y00156500D01*
X00078725Y00154216D01*
X00079607Y00152087D01*
X00081009Y00150259D01*
X00082837Y00148857D01*
X00084966Y00147975D01*
X00087250Y00147675D01*
X00089534Y00147975D01*
X00091663Y00148857D01*
X00093491Y00150259D01*
X00094893Y00152087D01*
X00095775Y00154216D01*
X00096075Y00156500D01*
X00095775Y00158784D01*
X00094893Y00160913D01*
X00093491Y00162741D01*
X00091663Y00164143D01*
X00089534Y00165025D01*
X00087250Y00165326D01*
D02*
G37*
G36*
X00138050D02*
X00135766Y00165025D01*
X00133637Y00164143D01*
X00131809Y00162741D01*
X00130407Y00160913D01*
X00129525Y00158784D01*
X00129225Y00156500D01*
X00129525Y00154216D01*
X00130407Y00152087D01*
X00131809Y00150259D01*
X00133637Y00148857D01*
X00135766Y00147975D01*
X00138050Y00147675D01*
X00140334Y00147975D01*
X00142463Y00148857D01*
X00144291Y00150259D01*
X00145693Y00152087D01*
X00146575Y00154216D01*
X00146875Y00156500D01*
X00146575Y00158784D01*
X00145693Y00160913D01*
X00144291Y00162741D01*
X00142463Y00164143D01*
X00140334Y00165025D01*
X00138050Y00165326D01*
D02*
G37*
G36*
X00112650D02*
X00110366Y00165025D01*
X00108237Y00164143D01*
X00106409Y00162741D01*
X00105007Y00160913D01*
X00104125Y00158784D01*
X00103825Y00156500D01*
X00104125Y00154216D01*
X00105007Y00152087D01*
X00106409Y00150259D01*
X00108237Y00148857D01*
X00110366Y00147975D01*
X00112650Y00147675D01*
X00114934Y00147975D01*
X00117063Y00148857D01*
X00118891Y00150259D01*
X00120293Y00152087D01*
X00121175Y00154216D01*
X00121475Y00156500D01*
X00121175Y00158784D01*
X00120293Y00160913D01*
X00118891Y00162741D01*
X00117063Y00164143D01*
X00114934Y00165025D01*
X00112650Y00165326D01*
D02*
G37*
G36*
X00034730Y00106205D02*
X00027029D01*
Y00102712D01*
X00027350Y00101102D01*
X00028262Y00099737D01*
X00029627Y00098825D01*
X00031237Y00098504D01*
X00034730D01*
Y00106205D01*
D02*
G37*
G36*
X00188850Y00165326D02*
X00186566Y00165025D01*
X00184437Y00164143D01*
X00182609Y00162741D01*
X00181207Y00160913D01*
X00180325Y00158784D01*
X00180025Y00156500D01*
X00180325Y00154216D01*
X00181207Y00152087D01*
X00182609Y00150259D01*
X00184437Y00148857D01*
X00186566Y00147975D01*
X00188850Y00147675D01*
X00191134Y00147975D01*
X00193263Y00148857D01*
X00195091Y00150259D01*
X00196493Y00152087D01*
X00197375Y00154216D01*
X00197675Y00156500D01*
X00197375Y00158784D01*
X00196493Y00160913D01*
X00195091Y00162741D01*
X00193263Y00164143D01*
X00191134Y00165025D01*
X00188850Y00165326D01*
D02*
G37*
G36*
X00232040Y00097540D02*
X00222270D01*
Y00092270D01*
X00232040D01*
Y00097540D01*
D02*
G37*
G36*
Y00089730D02*
X00209960D01*
Y00085284D01*
X00198750D01*
Y00089250D01*
X00183250D01*
Y00087951D01*
X00181980Y00086973D01*
X00181500Y00087069D01*
X00180134Y00086797D01*
X00178977Y00086023D01*
X00178203Y00084866D01*
X00177931Y00083500D01*
X00178203Y00082134D01*
X00178977Y00080977D01*
X00180134Y00080203D01*
X00181500Y00079931D01*
X00181980Y00080027D01*
X00183250Y00079049D01*
Y00077750D01*
X00198750D01*
Y00081716D01*
X00239261D01*
X00239689Y00081288D01*
X00240250Y00080250D01*
X00240250D01*
X00240250Y00080250D01*
Y00070750D01*
X00255750D01*
Y00080250D01*
X00245773D01*
X00241262Y00084762D01*
X00240683Y00085148D01*
X00240000Y00085284D01*
X00232040D01*
Y00089730D01*
D02*
G37*
G36*
X00219730Y00097540D02*
X00209960D01*
Y00092270D01*
X00219730D01*
Y00097540D01*
D02*
G37*
G36*
X00034730Y00116446D02*
X00031237D01*
X00029627Y00116125D01*
X00028262Y00115213D01*
X00027350Y00113848D01*
X00027029Y00112238D01*
Y00108745D01*
X00034730D01*
Y00116446D01*
D02*
G37*
G36*
X00040763D02*
X00037270D01*
Y00108745D01*
X00044971D01*
Y00112238D01*
X00044651Y00113848D01*
X00043738Y00115213D01*
X00042373Y00116125D01*
X00040763Y00116446D01*
D02*
G37*
G36*
X00256971Y00107205D02*
X00249270D01*
Y00099504D01*
X00252763D01*
X00254373Y00099824D01*
X00255738Y00100737D01*
X00256651Y00102102D01*
X00256971Y00103713D01*
Y00107205D01*
D02*
G37*
G36*
X00044971Y00106205D02*
X00037270D01*
Y00098504D01*
X00040763D01*
X00042373Y00098825D01*
X00043738Y00099737D01*
X00044651Y00101102D01*
X00044971Y00102712D01*
Y00106205D01*
D02*
G37*
G36*
X00246730Y00107205D02*
X00239029D01*
Y00103713D01*
X00239349Y00102102D01*
X00240262Y00100737D01*
X00241627Y00099824D01*
X00243237Y00099504D01*
X00246730D01*
Y00107205D01*
D02*
G37*
%LPD*%
G36*
X00205250Y00123750D02*
X00205250Y00123750D01*
X00205250D01*
X00204692Y00122716D01*
X00181261Y00099284D01*
X00167750D01*
Y00103250D01*
X00152250D01*
Y00100294D01*
X00148837D01*
Y00105821D01*
X00148663Y00106699D01*
X00148165Y00107443D01*
X00139822Y00115787D01*
X00140308Y00116960D01*
X00146540D01*
Y00124730D01*
X00139500D01*
Y00127270D01*
X00146540D01*
Y00132456D01*
X00157800D01*
X00159750Y00130506D01*
Y00118250D01*
X00169250D01*
Y00127506D01*
X00174200Y00132456D01*
X00178750D01*
Y00118250D01*
X00179452D01*
X00180114Y00116980D01*
X00179703Y00116366D01*
X00179431Y00115000D01*
X00179703Y00113634D01*
X00180477Y00112477D01*
X00181634Y00111703D01*
X00183000Y00111431D01*
X00184366Y00111703D01*
X00185523Y00112477D01*
X00186297Y00113634D01*
X00186569Y00115000D01*
X00186297Y00116366D01*
X00185886Y00116980D01*
X00186548Y00118250D01*
X00188250D01*
Y00132456D01*
X00205250D01*
Y00123750D01*
D02*
G37*
G36*
X00123911Y00086541D02*
X00123985Y00086491D01*
X00124036Y00086428D01*
X00123886Y00085047D01*
X00123483Y00084777D01*
X00122709Y00083620D01*
X00122438Y00082254D01*
X00122709Y00080888D01*
X00123483Y00079731D01*
X00124641Y00078957D01*
X00126006Y00078685D01*
X00127372Y00078957D01*
X00128530Y00079731D01*
X00128532Y00079734D01*
X00130287Y00080076D01*
X00130410Y00079993D01*
X00131776Y00079722D01*
X00133142Y00079993D01*
X00133978Y00080552D01*
X00135057Y00080146D01*
X00135248Y00079989D01*
Y00076271D01*
X00133636Y00074659D01*
X00125875D01*
X00125192Y00074524D01*
X00124613Y00074137D01*
X00119423Y00068947D01*
X00118250Y00069433D01*
Y00071750D01*
X00109974D01*
X00109370Y00071750D01*
X00108533Y00072798D01*
X00108552Y00073029D01*
X00121604Y00086081D01*
X00121780Y00086116D01*
X00122442Y00086558D01*
X00123911Y00086541D01*
D02*
G37*
%LPC*%
G36*
X00151730Y00123730D02*
X00148369D01*
X00148488Y00123131D01*
X00149547Y00121547D01*
X00151131Y00120488D01*
X00151730Y00120369D01*
Y00123730D01*
D02*
G37*
G36*
X00154270Y00129631D02*
Y00126270D01*
X00157631D01*
X00157512Y00126869D01*
X00156453Y00128453D01*
X00154869Y00129512D01*
X00154270Y00129631D01*
D02*
G37*
G36*
X00151730D02*
X00151131Y00129512D01*
X00149547Y00128453D01*
X00148488Y00126869D01*
X00148369Y00126270D01*
X00151730D01*
Y00129631D01*
D02*
G37*
G36*
X00157631Y00123730D02*
X00154270D01*
Y00120369D01*
X00154869Y00120488D01*
X00156453Y00121547D01*
X00157512Y00123131D01*
X00157631Y00123730D01*
D02*
G37*
%LPD*%
D10*
X00050000Y00051000D02*
D03*
Y00085000D02*
D03*
X00221000Y00091000D02*
D03*
Y00057000D02*
D03*
D11*
X00036000Y00126525D02*
D03*
Y00107475D02*
D03*
X00248000Y00108475D02*
D03*
Y00127525D02*
D03*
D12*
X00075000Y00103500D02*
D03*
Y00122500D02*
D03*
X00093000Y00058500D02*
D03*
Y00077500D02*
D03*
X00248000Y00056500D02*
D03*
Y00075500D02*
D03*
X00213000Y00128500D02*
D03*
Y00109500D02*
D03*
D13*
X00139500Y00126000D02*
D03*
X00120500D02*
D03*
D14*
X00132500Y00064000D02*
D03*
X00113500D02*
D03*
X00183500Y00126000D02*
D03*
X00164500D02*
D03*
D15*
X00121000Y00088000D02*
D03*
X00126000D02*
D03*
X00131000D02*
D03*
X00136000D02*
D03*
X00121000Y00093000D02*
D03*
X00126000D02*
D03*
X00131000D02*
D03*
X00136000D02*
D03*
X00121000Y00098000D02*
D03*
X00126000D02*
D03*
X00131000D02*
D03*
X00136000D02*
D03*
X00121000Y00103000D02*
D03*
X00126000D02*
D03*
X00131000D02*
D03*
X00136000D02*
D03*
D16*
X00160000Y00078500D02*
D03*
Y00097500D02*
D03*
X00191000Y00064500D02*
D03*
Y00083500D02*
D03*
D17*
X00116770Y00106555D02*
Y00115367D01*
X00114427Y00117710D02*
X00116770Y00115367D01*
X00114007Y00103792D02*
X00116770Y00106555D01*
X00112770Y00105737D02*
Y00113710D01*
X00110007Y00102974D02*
X00112770Y00105737D01*
X00110007Y00099660D02*
Y00102974D01*
Y00099660D02*
X00112350Y00097317D01*
X00114825D01*
X00116391Y00095750D01*
X00119714D01*
X00119965Y00095500D01*
X00122036D01*
X00122036Y00095500D01*
X00123500D01*
X00126000Y00093000D01*
X00103370Y00085690D02*
X00112348D01*
X00117158Y00090500D01*
X00100210Y00117710D02*
X00114427D01*
X00083817Y00101317D02*
X00100210Y00117710D01*
X00114007Y00101317D02*
Y00103792D01*
X00117158Y00090500D02*
X00119965D01*
X00113505Y00092505D02*
Y00092506D01*
X00114000Y00093000D01*
X00213000Y00161250D02*
X00214250Y00162500D01*
X00231025Y00127525D02*
X00248000D01*
X00121000Y00103000D02*
Y00106500D01*
X00136255Y00093255D02*
X00142007D01*
X00155500Y00098000D02*
X00159500D01*
X00141250Y00079000D02*
Y00087750D01*
X00137000Y00103000D02*
X00140000Y00106000D01*
X00138500Y00090500D02*
X00141250Y00087750D01*
X00137036Y00090500D02*
X00138500D01*
X00137036Y00090500D02*
X00137036Y00090500D01*
X00134965Y00090500D02*
X00137036D01*
X00133500Y00091965D02*
X00134965Y00090500D01*
X00133500Y00091965D02*
Y00094036D01*
X00133500Y00094036D01*
Y00095500D01*
X00131000Y00098000D02*
X00133500Y00095500D01*
X00137032Y00075532D02*
Y00086968D01*
X00136000Y00088000D02*
X00137032Y00086968D01*
X00114000Y00093000D02*
X00121000D01*
X00119965Y00090500D02*
X00119965Y00090500D01*
X00122036D01*
X00122036Y00090500D01*
X00124964D01*
X00124965Y00090500D01*
X00127036D01*
X00129536Y00093000D01*
X00131000D01*
X00114007Y00101317D02*
X00117324Y00098000D01*
X00131290Y00083290D02*
X00131776D01*
X00134375Y00072875D02*
X00137032Y00075532D01*
X00136000Y00093000D02*
X00136255Y00093255D01*
X00080500Y00098000D02*
X00083817Y00101317D01*
X00075000Y00103500D02*
X00080500Y00098000D01*
X00117324D02*
X00121000D01*
X00131000Y00083000D02*
Y00088000D01*
X00093000Y00060000D02*
X00121000Y00088000D01*
X00131000Y00083000D02*
X00131290Y00083290D01*
X00125875Y00072875D02*
X00134375D01*
X00117000Y00064000D02*
X00125875Y00072875D01*
X00109900Y00026750D02*
X00112650Y00024000D01*
X00093000Y00049150D02*
X00112650Y00029500D01*
X00093000Y00049150D02*
Y00058500D01*
X00136390Y00027840D02*
X00139430Y00024800D01*
X00113500Y00054050D02*
X00138050Y00029500D01*
X00113500Y00054050D02*
Y00064000D01*
X00126000Y00081892D02*
Y00088000D01*
X00160000Y00097500D02*
X00182000D01*
X00213000Y00128500D01*
X00093000Y00058500D02*
Y00060000D01*
X00040025Y00122500D02*
X00075000D01*
X00036000Y00126525D02*
X00040025Y00122500D01*
X00213000Y00109500D02*
X00231025Y00127525D01*
X00191000Y00083500D02*
X00240000D01*
X00248000Y00075500D01*
X00221500Y00056500D02*
X00248000D01*
X00221000Y00057000D02*
X00221500Y00056500D01*
X00181500Y00083500D02*
X00191000D01*
X00183500Y00115500D02*
Y00126000D01*
X00183000Y00115000D02*
X00183500Y00115500D01*
X00120500Y00126000D02*
Y00127500D01*
X00050000Y00085000D02*
Y00094000D01*
X00126000Y00103000D02*
Y00107394D01*
X00113500Y00064000D02*
X00117000D01*
X00131000Y00103000D02*
Y00106000D01*
X00136000Y00103000D02*
X00137000D01*
X00131000Y00106000D02*
X00132507Y00107507D01*
Y00112006D01*
D18*
X00213000Y00155250D02*
X00214250Y00156500D01*
X00213000Y00128500D02*
Y00155250D01*
X00206750Y00134750D02*
X00213000Y00128500D01*
X00173250Y00134750D02*
X00206750D01*
X00164500Y00126000D02*
X00173250Y00134750D01*
X00164500Y00126000D02*
Y00129000D01*
X00158750Y00134750D02*
X00164500Y00129000D01*
X00129250Y00134750D02*
X00158750D01*
X00120500Y00126000D02*
X00129250Y00134750D01*
X00147757Y00072007D02*
Y00090536D01*
X00132500Y00064000D02*
X00139750D01*
X00147757Y00072007D01*
X00121000Y00106500D02*
Y00110000D01*
X00127506Y00116505D01*
X00146543Y00091750D02*
Y00098000D01*
Y00091750D02*
X00147757Y00090536D01*
X00141000Y00098000D02*
X00146543D01*
X00155500D01*
X00146543D02*
Y00105821D01*
X00135858Y00116505D02*
X00146543Y00105821D01*
X00127506Y00116505D02*
X00135858D01*
D19*
X00136000Y00098000D02*
X00141000D01*
D20*
X00020000Y00000000D02*
X00265000D01*
Y00185000D01*
X00020000D02*
X00265000D01*
X00020000Y00000000D02*
Y00185000D01*
D21*
X00163450Y00156500D02*
D03*
X00188850D02*
D03*
X00138050D02*
D03*
X00112650D02*
D03*
X00087250D02*
D03*
X00061850D02*
D03*
X00163450Y00029500D02*
D03*
X00188850D02*
D03*
X00138050D02*
D03*
X00112650D02*
D03*
X00087250D02*
D03*
X00061850D02*
D03*
D22*
X00214250Y00156500D02*
D03*
Y00029500D02*
D03*
D23*
X00113505Y00092505D02*
D03*
X00112770Y00113710D02*
D03*
X00142007Y00093255D02*
D03*
X00141250Y00079000D02*
D03*
X00140000Y00106000D02*
D03*
X00125795Y00106811D02*
D03*
X00114007Y00101317D02*
D03*
X00131776Y00083290D02*
D03*
X00103370Y00085690D02*
D03*
X00126006Y00082254D02*
D03*
X00181500Y00083500D02*
D03*
X00183000Y00115000D02*
D03*
X00153000Y00125000D02*
D03*
X00050000Y00094000D02*
D03*
X00132507Y00112006D02*
D03*
M02*
